# 3ds Max Wavefront OBJ Exporter v0.99 - (c)2007 guruware
# File Created: 27.10.2025 13:56:25

mtllib statue horse 5.mtl

#
# object horse005
#

v  -9.000000 97.429871 25.846607
v  9.000000 97.429871 25.846607
v  -11.604608 95.465843 -25.704521
v  11.445744 95.465843 -25.704521
v  -4.350738 111.429871 29.583530
v  8.068163 111.429871 26.487148
v  -11.472302 117.265892 -24.020699
v  11.652680 117.264702 -26.310322
v  5.779398 111.429871 17.307411
v  -6.639503 111.429871 20.403790
v  -9.000000 97.429871 16.019836
v  9.000000 97.429871 16.019836
v  9.629735 118.591461 -20.803516
v  -8.649384 118.591461 -19.211681
v  -9.000000 97.429871 -19.790268
v  9.000000 97.429871 -19.790268
v  5.407663 118.591461 -20.435837
v  1.380704 148.964188 20.212196
v  5.199672 111.429871 27.202343
v  4.842398 97.429871 25.846607
v  4.842398 97.429871 16.019836
v  4.842398 97.429871 -19.790268
v  6.121621 95.465843 -25.704521
v  6.245999 117.264702 -25.839481
v  -3.564826 118.591461 -19.654469
v  -1.514212 148.964188 21.775906
v  -0.896271 111.429871 28.722233
v  -3.993083 97.429871 25.846607
v  -3.993083 97.429871 16.019836
v  -3.993083 97.429871 -19.790268
v  -5.192875 95.465843 -25.704521
v  -5.243948 117.264702 -24.838882
v  -10.274151 63.711456 20.512112
v  -10.274151 63.711456 11.378053
v  -2.718933 63.711456 11.378053
v  -2.718933 63.711456 20.512112
v  -10.274151 63.704826 -26.325764
v  -2.718933 63.704826 -26.325764
v  -2.718933 63.704826 -18.464508
v  -10.274151 63.704826 -18.464508
v  10.058019 63.711456 20.512112
v  3.784379 63.711456 20.512112
v  3.784379 63.711456 11.378053
v  10.058019 63.711456 11.378053
v  10.058019 63.704826 -26.325764
v  10.058019 63.704826 -18.464508
v  3.784379 63.704826 -18.464508
v  3.784379 63.704826 -26.325764
v  4.721106 115.262672 12.690733
v  5.212048 115.262672 13.091521
v  -0.844010 115.262672 15.174075
v  -4.275876 115.262672 16.354225
v  -9.000000 97.429871 8.694686
v  -3.993083 97.429871 8.694686
v  4.842398 97.429871 8.694686
v  9.000000 97.429871 8.694686
v  -1.767923 139.462708 24.784187
v  -0.442908 139.462708 23.759228
v  2.452009 139.462708 22.195518
v  3.814233 139.462708 21.459705
v  2.742929 139.462708 19.476383
v  1.446520 139.462708 17.076319
v  0.084295 139.462708 17.812134
v  -2.810622 139.462708 19.375843
v  -4.451122 139.462708 20.261971
v  -3.154712 139.462708 22.662033
v  6.192655 124.589737 23.578140
v  4.057936 124.589737 24.312225
v  -0.478639 124.589737 25.872261
v  -3.049438 124.589737 26.756306
v  -4.567966 124.589737 22.340431
v  -5.861331 124.589737 18.579334
v  -3.290531 124.589737 17.695290
v  -0.050235 124.589737 16.349043
v  1.887535 124.589737 15.191044
v  3.927775 124.589737 18.605143
v  4.026282 135.126816 20.625038
v  2.775696 135.126816 21.664684
v  0.118028 135.126816 23.874088
v  -1.388029 135.126816 25.126118
v  -2.901699 135.126816 23.305336
v  -4.733428 135.126816 21.101967
v  -3.227372 135.126816 19.849937
v  -0.569703 135.126816 17.640535
v  0.680883 135.126816 16.600883
v  2.512611 135.126816 18.804256
v  2.925035 132.047409 22.259308
v  -0.378158 132.047409 24.233276
v  -2.250021 132.047409 25.351887
v  -3.602392 132.047409 23.088848
v  -5.238929 132.047409 20.350300
v  -3.367067 132.047409 19.231693
v  -0.063874 132.047409 17.257727
v  1.490468 132.047409 16.328865
v  3.127004 132.047409 19.067413
v  4.479377 132.047409 21.330448
v  -2.083408 148.964188 24.645351
v  -0.442908 148.964188 23.759228
v  2.452009 148.964188 22.195518
v  3.814233 148.964188 21.459705
v  2.742929 148.964188 19.476383
v  1.446520 148.964188 17.076319
v  0.084295 148.964188 17.812134
v  -2.810622 148.964188 19.375843
v  -4.451122 148.964188 20.261971
v  -3.154712 148.964188 22.662033
v  5.955774 137.911774 37.445976
v  6.860778 137.911774 36.957130
v  8.457798 137.911774 36.094490
v  9.209286 137.911774 35.688568
v  9.209286 141.722305 35.688568
v  8.457798 141.722305 36.094490
v  6.860778 141.722305 36.957130
v  5.955774 141.722305 37.445976
v  1.399342 154.407181 19.324158
v  1.990041 154.407181 19.005089
v  1.427882 154.407181 17.964355
v  0.837183 154.407181 18.283424
v  -3.057270 154.407181 21.731430
v  -2.345904 154.407181 21.347179
v  -2.908063 154.407181 20.306446
v  -3.619430 154.407181 20.690697
v  -3.993083 67.177963 18.971699
v  -3.993083 67.177963 12.918468
v  -9.000000 67.177963 12.918468
v  -9.000000 67.177963 18.971699
v  4.842398 67.177963 18.971699
v  9.000000 67.177963 18.971699
v  9.000000 67.177963 12.918468
v  4.842398 67.177963 12.918468
v  -3.993083 66.446724 -19.790268
v  -4.124672 66.231316 -25.000000
v  -9.285663 66.231316 -25.000000
v  -9.000000 66.446724 -19.790268
v  9.000000 65.853539 -19.790268
v  9.210207 65.684731 -25.000000
v  4.952345 65.684731 -25.000000
v  4.842398 65.853539 -19.790268
v  9.000000 81.546265 22.073071
v  9.000000 81.546265 16.019836
v  4.842398 81.546265 16.019836
v  4.842398 81.546265 22.073071
v  -3.993083 81.333786 22.073071
v  -3.993083 81.333786 16.019836
v  -9.000000 81.333786 16.019836
v  -9.000000 81.333786 22.073071
v  9.000000 80.473289 -16.970406
v  10.360413 79.380829 -22.180138
v  5.553949 79.380829 -22.180138
v  4.842398 80.473289 -16.970406
v  -4.657348 79.321220 -22.180138
v  -10.442039 79.321220 -22.180138
v  -9.000000 80.408600 -16.970406
v  -3.993083 80.408600 -16.970406
v  0.280778 99.995247 25.846607
v  0.280778 97.429871 16.019836
v  0.280778 97.429871 8.694686
v  0.280778 97.429871 -19.790268
v  0.280124 95.465843 -25.704521
v  0.313920 117.264702 -25.322887
v  0.775307 118.591461 -20.032429
v  2.085400 115.262672 14.166713
v  -2.176309 124.589737 17.619568
v  -1.769261 132.047409 18.276854
v  -1.941815 135.126816 18.781216
v  -1.410305 139.462708 18.619453
v  -1.410305 148.964188 18.619453
v  -0.113896 148.964188 21.019516
v  0.957409 148.964188 23.002838
v  7.633281 141.722305 36.539860
v  7.633281 137.911774 36.539860
v  0.957409 139.462708 23.002838
v  1.403584 135.126816 22.805367
v  1.219648 132.047409 23.278435
v  1.715773 124.589737 25.117645
v  2.052433 111.429871 27.987041
v  -5.006386 117.452408 -24.105392
v  0.379197 117.452408 -24.574394
v  6.127391 117.452408 -25.074974
v  11.366474 117.452408 -25.531219
v  11.099721 95.743713 -24.262932
v  10.167942 79.535385 -21.443069
v  9.180467 65.708618 -24.262932
v  10.058019 63.704826 -25.213558
v  3.784379 63.704826 -25.213558
v  4.936790 65.708618 -24.262932
v  5.453279 79.535385 -21.443069
v  5.940637 95.743713 -24.262932
v  0.280217 95.743713 -24.262932
v  -5.023129 95.743713 -24.262932
v  -4.563368 79.475060 -21.443069
v  -4.106055 66.261795 -24.262932
v  -2.718933 63.704826 -25.213558
v  -10.274151 63.704826 -25.213558
v  -9.245247 66.261795 -24.262932
v  -10.238021 79.475060 -21.443069
v  -11.236109 95.743713 -24.262932
v  -11.072918 117.453430 -23.340324
v  -4.096920 118.171021 -21.297348
v  0.416586 122.693069 -24.149200
v  5.673321 118.171021 -22.148190
v  10.270783 118.171021 -22.548557
v  9.775028 96.807487 -21.441174
v  9.431099 80.127106 -18.621311
v  9.066612 65.800049 -21.441174
v  10.058019 63.704826 -20.955647
v  3.784379 63.704826 -20.955647
v  4.877239 65.800049 -21.441174
v  5.067880 80.127106 -18.621311
v  5.247769 96.807487 -21.441174
v  0.280571 96.807487 -21.441174
v  -4.373283 96.807487 -21.441174
v  -4.203581 80.064018 -18.621311
v  -4.034782 66.378464 -21.441174
v  -2.718933 63.704826 -20.955647
v  -10.274151 63.704826 -20.955647
v  -9.090523 66.378464 -21.441174
v  -9.456966 80.064018 -18.621311
v  -9.825371 96.807487 -21.441174
v  -9.543935 118.171402 -20.735607
v  -2.457570 117.452408 -24.327354
v  -2.613595 117.264702 -25.067944
v  -2.602688 95.465843 -25.704521
v  -2.513233 95.743713 -24.262932
v  -2.170770 96.807487 -21.441174
v  -1.970408 97.429871 -19.790268
v  -1.970408 97.429871 8.694686
v  -1.970408 97.429871 16.019836
v  -1.970408 98.643974 25.846607
v  0.499252 111.429871 28.374290
v  0.559903 124.589737 25.515125
v  0.378030 132.047409 23.781380
v  0.726439 135.126816 23.368301
v  0.219815 139.462708 23.401253
v  7.226377 137.911758 36.759651
v  7.226377 141.722305 36.759651
v  0.219815 148.964188 23.401253
v  -0.851489 148.964188 21.417934
v  -2.147899 148.964188 19.017868
v  -2.147899 139.462708 19.017868
v  -2.618961 135.126816 19.344147
v  -2.610880 132.047409 18.779797
v  -3.225538 124.589737 18.246578
v  0.542381 115.262672 14.697326
v  -1.510786 118.591461 -19.833344
v  -1.860253 118.171021 -21.492126
v  3.288975 117.452408 -24.827793
v  3.316782 117.264702 -25.584393
v  3.237133 95.465843 -25.704521
v  3.145563 95.743713 -24.262932
v  2.795003 96.807487 -21.441174
v  2.589903 97.429871 -19.790268
v  2.589903 97.429871 8.694686
v  2.589903 97.429871 16.019836
v  2.589903 98.696632 25.846607
v  3.645588 111.429871 27.589821
v  2.901393 124.589737 24.709938
v  2.082927 132.047409 22.762543
v  2.098157 135.126816 22.227947
v  1.713986 139.462708 22.594166
v  8.050657 137.911774 36.314411
v  8.050657 141.722305 36.314411
v  1.713986 148.964188 22.594166
v  0.642682 148.964188 20.610844
v  -0.653728 148.964188 18.210781
v  -0.653728 139.462708 18.210781
v  -1.247242 135.126816 18.203794
v  -0.905981 132.047409 17.760963
v  -1.100074 124.589737 16.976418
v  3.668132 115.262672 13.622443
v  3.120240 118.591461 -20.236637
v  3.182522 118.171021 -21.931278
v  2.970009 122.693069 -24.371563
v  3.065530 122.032349 -27.225742
v  0.166684 121.974457 -27.014683
v  -2.652180 122.032349 -26.727814
v  -2.072767 122.693069 -23.932411
v  0.237465 118.733047 -26.201904
v  3.139293 118.747063 -26.378727
v  3.154179 119.478653 -22.256737
v  3.091897 119.899078 -20.562096
v  0.746965 119.899078 -20.357887
v  -1.539129 119.899078 -20.158802
v  -1.888597 119.478653 -21.817585
v  -2.578416 118.747063 -25.880798
v  -0.949990 100.623367 -39.964283
v  0.212324 100.623367 -40.065502
v  1.427954 99.985245 -37.988522
v  0.261241 99.985245 -37.988522
v  -0.876198 99.985245 -37.988522
v  -2.083139 100.623367 -39.865604
v  4.215869 121.503883 -34.867481
v  -0.492839 121.503883 -34.457424
v  -5.083399 121.503883 -34.057652
v  -4.670896 116.205948 -29.320873
v  -0.080336 116.205948 -29.720646
v  4.628373 116.205948 -30.130703
v  4.420330 113.242905 -39.525448
v  -0.897709 113.242905 -39.062321
v  -6.082315 113.242897 -38.610821
v  -5.443305 108.043869 -31.273090
v  -0.258702 108.043869 -31.724590
v  5.059344 108.043869 -32.187710
v  -1.723629 122.432373 -21.688866
v  -1.598805 120.809402 -20.844067
v  -1.998214 122.693069 -23.076321
v  0.613280 122.432373 -21.892376
v  0.491139 122.693069 -23.293110
v  0.687288 120.809402 -21.043152
v  3.010334 122.432373 -22.101124
v  3.044561 122.693069 -23.515472
v  3.032220 120.809402 -21.247360
v  4.247288 120.223251 -35.583233
v  -0.555052 120.223251 -35.165020
v  -5.236895 120.223244 -34.757305
v  -4.789587 115.370125 -29.620853
v  -0.107745 115.370125 -30.028576
v  4.694596 115.370125 -30.446789
v  4.050712 121.904724 -33.600521
v  -0.374605 121.849251 -33.120770
v  -4.705173 121.904716 -32.838009
v  -4.334416 116.958633 -28.580605
v  -0.010886 117.032043 -28.944183
v  4.421469 116.958641 -29.343113
v  4.232156 120.994797 -35.238506
v  -0.525089 120.994797 -34.824223
v  -5.162967 120.994789 -34.420338
v  -4.732422 116.010765 -29.476376
v  -0.094544 116.010765 -29.880276
v  4.662701 116.010765 -30.294559
v  11.540599 106.577911 -27.014225
v  6.054523 106.577911 -27.568871
v  3.152566 106.577911 -27.316151
v  0.177649 106.577911 -27.057083
v  -2.722622 106.577911 -26.804512
v  -5.328496 106.577911 -26.577579
v  -11.634899 106.578522 -25.887802
v  -11.057391 106.810341 -23.329567
v  -9.468970 107.697845 -20.683662
v  -8.539644 108.217087 -19.135643
v  -7.713067 106.520226 11.459921
v  -7.632709 104.566429 17.465019
v  -7.632709 104.566429 27.105217
v  -3.363251 104.566429 27.105217
v  -1.638492 105.161644 27.105217
v  0.281120 105.824097 27.105217
v  2.250139 105.187454 27.105217
v  4.170867 104.566429 27.105217
v  7.716104 104.566429 27.105217
v  7.716104 104.566429 17.465019
v  7.761992 106.520226 11.459921
v  9.070730 108.217087 -19.878937
v  9.853403 107.697647 -21.546124
v  11.191162 106.809822 -24.395714
# 354 vertices

vt 0.527713 0.057722 0.000000
vt 0.557766 0.015352 0.000000
vt 0.592812 0.040209 0.000000
vt 0.562760 0.082579 0.000000
vt 0.939965 0.908969 0.000000
vt 0.932530 0.910389 0.000000
vt 0.931675 0.900588 0.000000
vt 0.936227 0.905467 0.000000
vt 0.864877 0.198110 0.000000
vt 0.474428 0.110026 0.000000
vt 0.882972 0.211230 0.000000
vt 0.871970 0.213182 0.000000
vt 0.058439 0.271044 0.000000
vt 0.122584 0.265478 0.000000
vt 0.116173 0.313986 0.000000
vt 0.052991 0.318325 0.000000
vt 0.403714 0.246731 0.000000
vt 0.900498 0.490992 0.000000
vt 0.899375 0.537136 0.000000
vt 0.411251 0.314508 0.000000
vt 0.422712 0.600501 0.000000
vt 0.432424 0.602402 0.000000
vt 0.437579 0.674862 0.000000
vt 0.420455 0.673163 0.000000
vt 0.530848 0.087039 0.000000
vt 0.572347 0.088665 0.000000
vt 0.571254 0.117120 0.000000
vt 0.529756 0.115519 0.000000
vt 0.894896 0.903917 0.000000
vt 0.893546 0.896198 0.000000
vt 0.895328 0.897949 0.000000
vt 0.895918 0.901846 0.000000
vt 0.171586 0.262771 0.000000
vt 0.156518 0.323832 0.000000
vt 0.698369 0.613199 0.000000
vt 0.762286 0.610606 0.000000
vt 0.771852 0.657441 0.000000
vt 0.709110 0.660490 0.000000
vt 0.630003 0.010729 0.000000
vt 0.638539 0.022036 0.000000
vt 0.604246 0.047923 0.000000
vt 0.595710 0.036616 0.000000
vt 0.884936 0.603588 0.000000
vt 0.881904 0.596358 0.000000
vt 0.900948 0.596892 0.000000
vt 0.902358 0.604157 0.000000
vt 0.359755 0.253984 0.000000
vt 0.372425 0.251430 0.000000
vt 0.373680 0.321684 0.000000
vt 0.361881 0.325105 0.000000
vt 0.700865 0.070103 0.000000
vt 0.667936 0.056368 0.000000
vt 0.687933 0.008426 0.000000
vt 0.720862 0.022160 0.000000
vt 0.919765 0.913315 0.000000
vt 0.913888 0.915364 0.000000
vt 0.913444 0.908090 0.000000
vt 0.917372 0.902788 0.000000
vt 0.472474 0.167469 0.000000
vt 0.902997 0.210065 0.000000
vt 0.912453 0.491414 0.000000
vt 0.911277 0.537456 0.000000
vt 0.332032 0.251191 0.000000
vt 0.569467 0.167301 0.000000
vt 0.911776 0.604528 0.000000
vt 0.916931 0.744472 0.000000
vt 0.910506 0.742606 0.000000
vt 0.778628 0.163151 0.000000
vt 0.884212 0.356015 0.000000
vt 0.762745 0.015974 0.000000
vt 0.784503 0.160812 0.000000
vt 0.897556 0.581376 0.000000
vt 0.909608 0.581655 0.000000
vt 0.910070 0.584754 0.000000
vt 0.898265 0.584590 0.000000
vt 0.528966 0.127027 0.000000
vt 0.472745 0.123287 0.000000
vt 0.929605 0.910882 0.000000
vt 0.928430 0.901083 0.000000
vt 0.887694 0.212407 0.000000
vt 0.733154 0.122916 0.000000
vt 0.732741 0.134409 0.000000
vt 0.570807 0.128613 0.000000
vt 0.947262 0.492902 0.000000
vt 0.936590 0.492422 0.000000
vt 0.236390 0.861608 0.000000
vt 0.230328 0.874531 0.000000
vt 0.946122 0.538730 0.000000
vt 0.937866 0.605523 0.000000
vt 0.465024 0.613735 0.000000
vt 0.651134 0.613801 0.000000
vt 0.935863 0.749613 0.000000
vt 0.944327 0.583256 0.000000
vt 0.669752 0.673788 0.000000
vt 0.469448 0.684274 0.000000
vt 0.943454 0.586406 0.000000
vt 0.693966 0.508073 0.000000
vt 0.835147 0.165123 0.000000
vt 0.122392 0.910987 0.000000
vt 0.845475 0.155789 0.000000
vt 0.947309 0.425027 0.000000
vt 0.733507 0.506434 0.000000
vt 0.763517 0.195753 0.000000
vt 0.452990 0.609548 0.000000
vt 0.888053 0.025964 0.000000
vt 0.471574 0.500048 0.000000
vt 0.482764 0.502338 0.000000
vt 0.936646 0.153914 0.000000
vt 0.945144 0.161332 0.000000
vt 0.528013 0.165967 0.000000
vt 0.926854 0.140382 0.000000
vt 0.158414 0.960895 0.000000
vt 0.393837 0.247205 0.000000
vt 0.398427 0.140746 0.000000
vt 0.883473 0.423184 0.000000
vt 0.342202 0.137679 0.000000
vt 0.368313 0.142034 0.000000
vt 0.320514 0.247697 0.000000
vt 0.332272 0.133604 0.000000
vt 0.835047 0.238442 0.000000
vt 0.908080 0.741945 0.000000
vt 0.931030 0.889044 0.000000
vt 0.927721 0.889393 0.000000
vt 0.528055 0.153121 0.000000
vt 0.569876 0.154498 0.000000
vt 0.702873 0.734326 0.000000
vt 0.954824 0.900174 0.000000
vt 0.953078 0.897833 0.000000
vt 0.953096 0.894021 0.000000
vt 0.730602 0.705735 0.000000
vt 0.890327 0.230526 0.000000
vt 0.896479 0.267451 0.000000
vt 0.888950 0.267935 0.000000
vt 0.894235 0.230159 0.000000
vt 0.899519 0.267248 0.000000
vt 0.907440 0.229025 0.000000
vt 0.915532 0.228409 0.000000
vt 0.916012 0.266057 0.000000
vt 0.909756 0.266528 0.000000
vt 0.119081 0.360709 0.000000
vt 0.117723 0.448545 0.000000
vt 0.143978 0.448377 0.000000
vt 0.922644 0.786742 0.000000
vt 0.927436 0.788064 0.000000
vt 0.950093 0.792651 0.000000
vt 0.939215 0.790112 0.000000
vt 0.751168 0.792163 0.000000
vt 0.725355 0.793266 0.000000
vt 0.899584 0.288448 0.000000
vt 0.792823 0.703994 0.000000
vt 0.910280 0.288254 0.000000
vt 0.907554 0.288307 0.000000
vt 0.906372 0.266773 0.000000
vt 0.915311 0.288148 0.000000
vt 0.120413 0.497872 0.000000
vt 0.141112 0.495429 0.000000
vt 0.918327 0.818039 0.000000
vt 0.934115 0.820581 0.000000
vt 0.930478 0.820042 0.000000
vt 0.937067 0.790731 0.000000
vt 0.942897 0.822517 0.000000
vt 0.781680 0.791007 0.000000
vt 0.901397 0.296994 0.000000
vt 0.945387 0.978515 0.000000
vt 0.945547 0.978546 0.000000
vt 0.759723 0.840983 0.000000
vt 0.911007 0.296962 0.000000
vt 0.945326 0.978504 0.000000
vt 0.945335 0.978505 0.000000
vt 0.908558 0.296967 0.000000
vt 0.111976 0.520602 0.000000
vt 0.945299 0.978499 0.000000
vt 0.127094 0.517416 0.000000
vt 0.130570 0.546330 0.000000
vt 0.145480 0.513976 0.000000
vt 0.147314 0.540355 0.000000
vt 0.918998 0.831430 0.000000
vt 0.915964 0.849911 0.000000
vt 0.932997 0.833130 0.000000
vt 0.929103 0.850242 0.000000
vt 0.926097 0.850182 0.000000
vt 0.929805 0.832725 0.000000
vt 0.940914 0.834282 0.000000
vt 0.936741 0.850315 0.000000
vt 0.738895 0.841323 0.000000
vt 0.776939 0.840600 0.000000
vt 0.945910 0.978614 0.000000
vt 0.945469 0.978438 0.000000
vt 0.948332 0.975922 0.000000
vt 0.952415 0.975225 0.000000
vt 0.946078 0.977490 0.000000
vt 0.946651 0.976507 0.000000
vt 0.945113 0.978399 0.000000
vt 0.945227 0.978485 0.000000
vt 0.030921 0.604683 0.000000
vt 0.944196 0.976212 0.000000
vt 0.170782 0.596609 0.000000
vt 0.916663 0.890182 0.000000
vt 0.919316 0.850005 0.000000
vt 0.920308 0.890003 0.000000
vt 0.937526 0.885376 0.000000
vt 0.902480 0.309075 0.000000
vt 0.922996 0.912372 0.000000
vt 0.944995 0.975872 0.000000
vt 0.763646 0.861410 0.000000
vt 0.759165 0.889812 0.000000
vt 0.204121 0.921593 0.000000
vt 0.817715 0.125447 0.000000
vt 0.964481 0.123212 0.000000
vt 0.972014 0.132239 0.000000
vt 0.953587 0.110337 0.000000
vt 0.241967 0.963535 0.000000
vt 0.779133 0.119301 0.000000
vt 0.622645 0.072298 0.000000
vt 0.656938 0.046411 0.000000
vt 0.967857 0.370555 0.000000
vt 0.807728 0.030731 0.000000
vt 0.758974 0.121351 0.000000
vt 0.741345 0.889768 0.000000
vt 0.744921 0.861194 0.000000
vt 0.779119 0.861481 0.000000
vt 0.392474 0.049381 0.000000
vt 0.398317 0.032021 0.000000
vt 0.763074 0.040186 0.000000
vt 0.403753 0.051059 0.000000
vt 0.364983 0.042997 0.000000
vt 0.364513 0.025708 0.000000
vt 0.790469 0.172504 0.000000
vt 0.794390 0.171024 0.000000
vt 0.427219 0.053436 0.000000
vt 0.379328 0.141508 0.000000
vt 0.839284 0.237610 0.000000
vt 0.747549 0.199990 0.000000
vt 0.775742 0.889882 0.000000
vt 0.924687 0.491905 0.000000
vt 0.935403 0.538302 0.000000
vt 0.923489 0.537856 0.000000
vt 0.920725 0.606233 0.000000
vt 0.929335 0.605291 0.000000
vt 0.930029 0.748098 0.000000
vt 0.923563 0.746330 0.000000
vt 0.921789 0.582196 0.000000
vt 0.933642 0.582771 0.000000
vt 0.126902 0.747477 0.000000
vt 0.921644 0.585382 0.000000
vt 0.528308 0.139895 0.000000
vt 0.471673 0.152851 0.000000
vt 0.470339 0.137935 0.000000
vt 0.926344 0.911551 0.000000
vt 0.921054 0.902224 0.000000
vt 0.924798 0.901641 0.000000
vt 0.897922 0.211871 0.000000
vt 0.892863 0.213962 0.000000
vt 0.732281 0.147198 0.000000
vt 0.731811 0.160316 0.000000
vt 0.570327 0.141393 0.000000
vt 0.250056 0.832472 0.000000
vt 0.243136 0.847225 0.000000
vt 0.924056 0.889729 0.000000
vt 0.898592 0.229764 0.000000
vt 0.903068 0.229376 0.000000
vt 0.902902 0.267017 0.000000
vt 0.932320 0.789409 0.000000
vt 0.904759 0.288356 0.000000
vt 0.902033 0.288404 0.000000
vt 0.926458 0.819410 0.000000
vt 0.922331 0.818735 0.000000
vt 0.904801 0.309050 0.000000
vt 0.903597 0.296983 0.000000
vt 0.906046 0.296974 0.000000
vt 0.922751 0.850100 0.000000
vt 0.922580 0.831853 0.000000
vt 0.926243 0.832292 0.000000
vt 0.945369 0.978512 0.000000
vt 0.945573 0.977725 0.000000
vt 0.945948 0.976281 0.000000
vt 0.758775 0.951930 0.000000
vt 0.618835 0.067250 0.000000
vt 0.876647 0.583984 0.000000
vt 0.875279 0.580748 0.000000
vt 0.394016 0.316025 0.000000
vt 0.727399 0.040670 0.000000
vt 0.918808 0.605432 0.000000
vt 0.919209 0.605486 0.000000
vt 0.918448 0.605419 0.000000
vt 0.918126 0.605348 0.000000
vt 0.258664 0.854507 0.000000
vt 0.252743 0.867128 0.000000
vt 0.962506 0.599449 0.000000
vt 0.939954 0.598458 0.000000
vt 0.768713 0.294206 0.000000
vt 0.860046 0.328881 0.000000
vt 0.774958 0.119725 0.000000
vt 0.740940 0.951813 0.000000
vt 0.422410 0.053098 0.000000
vt 0.809401 0.165361 0.000000
vt 0.920576 0.605356 0.000000
vt 0.264736 0.841561 0.000000
vt 0.919357 0.605504 0.000000
vt 0.918791 0.605469 0.000000
vt 0.919919 0.605487 0.000000
vt 0.918898 0.605417 0.000000
vt 0.920169 0.605654 0.000000
vt 0.911426 0.596912 0.000000
vt 0.918511 0.605608 0.000000
vt 0.922379 0.605942 0.000000
vt 0.916109 0.605140 0.000000
vt 0.916699 0.605177 0.000000
vt 0.917620 0.605273 0.000000
vt 0.159926 0.765142 0.000000
vt 0.118964 0.755827 0.000000
vt 0.922272 0.605735 0.000000
vt 0.919458 0.605612 0.000000
vt 0.920927 0.605760 0.000000
vt 0.917872 0.605396 0.000000
vt 0.918731 0.605479 0.000000
vt 0.758481 0.346299 0.000000
vt 0.758942 0.359961 0.000000
vt 0.752860 0.357308 0.000000
vt 0.752641 0.343150 0.000000
vt 0.738498 0.349069 0.000000
vt 0.750299 0.343154 0.000000
vt 0.920023 0.605634 0.000000
vt 0.918260 0.605350 0.000000
vt 0.918409 0.605368 0.000000
vt 0.918109 0.605331 0.000000
vt 0.163667 0.783164 0.000000
vt 0.112037 0.775599 0.000000
vt 0.918381 0.605358 0.000000
vt 0.918266 0.605349 0.000000
vt 0.918261 0.605348 0.000000
vt 0.918309 0.605353 0.000000
vt 0.918331 0.605356 0.000000
vt 0.918195 0.605339 0.000000
vt 0.918204 0.605340 0.000000
vt 0.164953 0.789494 0.000000
vt 0.088941 0.764120 0.000000
vt 0.108954 0.781096 0.000000
vt 0.108164 0.782325 0.000000
vt 0.918322 0.605352 0.000000
vt 0.918301 0.605349 0.000000
vt 0.918244 0.605344 0.000000
vt 0.918261 0.605346 0.000000
vt 0.918235 0.605343 0.000000
vt 0.174457 0.836495 0.000000
vt 0.078461 0.818259 0.000000
vt 0.918254 0.605344 0.000000
vt 0.919475 0.605560 0.000000
vt 0.918256 0.605347 0.000000
vt 0.918293 0.605350 0.000000
vt 0.918214 0.605341 0.000000
vt 0.165980 0.794568 0.000000
vt 0.105776 0.785215 0.000000
vt 0.918286 0.605348 0.000000
vt 0.773506 0.952016 0.000000
vt 0.872781 0.880384 0.000000
vt 0.226447 0.917183 0.000000
vt 0.825508 0.102444 0.000000
vt 0.808744 0.118938 0.000000
vt 0.876898 0.190789 0.000000
vt 0.891978 0.167610 0.000000
vt 0.262593 0.993863 0.000000
vt 0.957476 0.100679 0.000000
vt 0.263720 0.958203 0.000000
vt 0.982523 0.129896 0.000000
vt 0.973424 0.116863 0.000000
vt 0.906700 0.189313 0.000000
vt 0.883966 0.193510 0.000000
vt 0.854776 0.142227 0.000000
vt 0.891103 0.166435 0.000000
vt 0.157668 0.984528 0.000000
vt 0.829194 0.112929 0.000000
vt 0.241221 0.987168 0.000000
vt 0.899293 0.192860 0.000000
vt 0.891767 0.196671 0.000000
vt 0.872620 0.905300 0.000000
vt 0.753472 0.987653 0.000000
vt 0.754941 0.104664 0.000000
vt 0.788356 0.028189 0.000000
vt 0.726984 0.010133 0.000000
vt 0.762660 0.009649 0.000000
vt 0.431450 0.040249 0.000000
vt 0.727070 0.016458 0.000000
vt 0.785389 0.102329 0.000000
vt 0.972220 0.358934 0.000000
vt 0.653128 0.041363 0.000000
vt 0.763266 0.054352 0.000000
vt 0.406453 0.037509 0.000000
vt 0.727591 0.054836 0.000000
vt 0.779082 0.102815 0.000000
vt 0.806998 0.151856 0.000000
vt 0.270660 0.828932 0.000000
vt 0.855492 0.234434 0.000000
vt 0.808320 0.021439 0.000000
vt 0.885282 0.017204 0.000000
vt 0.742309 0.147557 0.000000
vt 0.742809 0.133630 0.000000
vt 0.743259 0.121114 0.000000
vt 0.354720 0.039547 0.000000
vt 0.741797 0.161841 0.000000
vt 0.793903 0.016584 0.000000
vt 0.353263 0.028798 0.000000
vt 0.527242 0.189606 0.000000
vt 0.745738 0.987597 0.000000
vt 0.669889 0.416431 0.000000
vt 0.031614 0.899208 0.000000
vt 0.568684 0.190937 0.000000
vt 0.734180 0.094468 0.000000
vt 0.730512 0.196738 0.000000
vt 0.731354 0.173113 0.000000
vt 0.983347 0.012710 0.000000
vt 0.784816 0.287245 0.000000
vt 0.067382 0.981675 0.000000
vt 0.741299 0.175778 0.000000
vt 0.247424 0.878468 0.000000
vt 0.256807 0.818081 0.000000
vt 0.877603 0.328064 0.000000
vt 0.980015 0.003053 0.000000
vt 0.917175 0.605211 0.000000
vt 0.933075 0.585951 0.000000
vt 0.115089 0.736400 0.000000
vt 0.930778 0.598156 0.000000
vt 0.914372 0.604877 0.000000
vt 0.107014 0.745011 0.000000
vt 0.737966 0.355515 0.000000
vt 0.094360 0.758378 0.000000
vt 0.089927 0.763076 0.000000
vt 0.165239 0.790902 0.000000
vt 0.056971 0.797908 0.000000
vt 0.086370 0.766837 0.000000
vt 0.157644 0.753560 0.000000
vt 0.900393 0.309108 0.000000
vt 0.909507 0.309044 0.000000
vt 0.907183 0.309040 0.000000
vt 0.945386 0.978515 0.000000
vt 0.945342 0.978507 0.000000
vt 0.945386 0.978515 0.000000
vt 0.658834 0.392717 0.000000
vt 0.718504 0.390261 0.000000
vt 0.709433 0.414801 0.000000
vt 0.431443 0.408747 0.000000
vt 0.973617 0.493874 0.000000
vt 0.972108 0.539855 0.000000
vt 0.987150 0.040636 0.000000
vt 0.958897 0.606080 0.000000
vt 0.950287 0.753401 0.000000
vt 0.969998 0.584841 0.000000
vt 0.968480 0.587890 0.000000
vt 0.118728 0.939225 0.000000
vt 0.422809 0.391005 0.000000
vt 0.971079 0.425746 0.000000
vt 0.890704 0.053690 0.000000
vt 0.954729 0.892020 0.000000
vt 0.430081 0.391016 0.000000
vt 0.880639 0.231477 0.000000
vt 0.436264 0.409052 0.000000
vt 0.447441 0.495120 0.000000
vt 0.893526 0.288563 0.000000
vt 0.452442 0.496130 0.000000
vt 0.895747 0.309131 0.000000
vt 0.457690 0.680800 0.000000
vt 0.895959 0.297037 0.000000
vt 0.457906 0.391075 0.000000
vt 0.454721 0.410200 0.000000
vt 0.474191 0.391066 0.000000
vt 0.465522 0.410826 0.000000
vt 0.437293 0.744523 0.000000
vt 0.200457 0.949830 0.000000
vt 0.808555 0.136177 0.000000
vt 0.810816 0.059242 0.000000
vt 0.432136 0.743280 0.000000
vt 0.798466 0.133827 0.000000
vt 0.220918 0.959792 0.000000
vt 0.795434 0.069055 0.000000
vt 0.027950 0.927446 0.000000
vt 0.917185 0.194869 0.000000
vt 0.068129 0.958042 0.000000
vt 0.912375 0.210257 0.000000
vt 0.878570 0.490662 0.000000
vt 0.876767 0.536579 0.000000
vt 0.173134 0.634446 0.000000
vt 0.180234 0.631377 0.000000
vt 0.371088 0.392750 0.000000
vt 0.383026 0.389795 0.000000
vt 0.140854 0.609007 0.000000
vt 0.154373 0.603486 0.000000
vt 0.438543 0.041869 0.000000
vt 0.072511 0.165883 0.000000
vt 0.112028 0.161235 0.000000
vt 0.403466 0.140584 0.000000
vt 0.150411 0.384547 0.000000
vt 0.057414 0.363246 0.000000
vt 0.082059 0.449701 0.000000
vt 0.913742 0.784234 0.000000
vt 0.103202 0.499361 0.000000
vt 0.910983 0.816621 0.000000
vt 0.915522 0.296937 0.000000
vt 0.913799 0.309054 0.000000
vt 0.116537 0.551402 0.000000
vt 0.912373 0.830672 0.000000
vt 0.909745 0.849775 0.000000
vt 0.020882 0.581855 0.000000
vt 0.944042 0.978252 0.000000
vt 0.910876 0.887642 0.000000
vt 0.079817 0.070625 0.000000
vt 0.118971 0.064675 0.000000
vt 0.887812 0.365764 0.000000
vt 0.403506 0.384705 0.000000
vt 0.408884 0.383347 0.000000
vt 0.125169 0.039631 0.000000
vt 0.066124 0.048789 0.000000
vt 0.918046 0.605207 0.000000
vt 0.143651 0.768054 0.000000
vt 0.918909 0.605359 0.000000
vt 0.179971 0.894354 0.000000
vt 0.918242 0.605344 0.000000
vt 0.750301 0.349623 0.000000
vt 0.918242 0.605344 0.000000
vt 0.173408 0.895327 0.000000
vt 0.918241 0.605344 0.000000
vt 0.918237 0.605343 0.000000
vt 0.017288 0.840427 0.000000
vt 0.918241 0.605344 0.000000
vt 0.138926 0.788512 0.000000
vt 0.918310 0.605338 0.000000
vt 0.138604 0.794810 0.000000
vt 0.138618 0.796272 0.000000
vt 0.918247 0.605339 0.000000
vt 0.918245 0.605340 0.000000
vt 0.144698 0.842498 0.000000
vt 0.918234 0.605342 0.000000
vt 0.139107 0.799989 0.000000
vt 0.918243 0.605341 0.000000
vt 0.141346 0.756767 0.000000
vt 0.012839 0.835731 0.000000
vt 0.249685 0.813604 0.000000
vt 0.851817 0.330629 0.000000
vt 0.242718 0.828455 0.000000
vt 0.909986 0.355748 0.000000
vt 0.222359 0.871859 0.000000
vt 0.792972 0.285213 0.000000
vt 0.228614 0.858523 0.000000
vt 0.767689 0.194649 0.000000
vt 0.903221 0.423162 0.000000
vt 0.946647 0.369990 0.000000
vt 0.905304 0.365598 0.000000
vt 0.235577 0.843680 0.000000
vt 0.941171 0.358118 0.000000
vt 0.468637 0.752013 0.000000
vt 0.457061 0.749262 0.000000
# 550 texture coords

o horse005
g horse005
usemtl wire_052125065
f 33/1 34/2 35/3 36/4 
f 97/5 98/6 26/7 106/8 
f 1/9 28/360 344/11 343/12 
f 2/13 12/14 350/15 349/16 
f 4/479 23/18 332/19 331/480 
f 3/21 197/22 338/23 337/24 
f 11/25 53/26 54/27 29/28 
f 116/29 117/30 118/31 115/32 
f 12/14 56/33 351/34 350/15 
f 11/35 1/36 343/37 342/38 
f 15/90 53/91 341/94 340/95 
f 40/39 216/40 215/41 39/42 
f 13/43 202/44 201/45 17/46 
f 16/47 203/48 353/49 352/50 
f 43/51 44/52 41/53 42/54 
f 99/55 100/56 101/57 18/58 
f 20/367 2/476 349/478 348/60 
f 23/18 249/61 333/62 332/19 
f 22/410 16/409 56/407 55/64 
f 17/46 271/65 270/66 50/67 
f 48/380 45/381 184/70 185/383 
f 24/72 248/73 247/74 179/75 
f 29/28 228/76 229/77 28/10 
f 98/6 237/78 238/79 26/7 
f 28/360 229/368 345/80 344/11 
f 30/81 226/82 227/83 54/27 
f 31/540 223/542 224/86 190/87 
f 31/84 3/442 337/443 336/88 
f 25/89 14/445 52/446 51/92 
f 32/93 7/447 198/448 177/96 
f 1/36 11/35 145/97 146/102 
f 11/475 29/406 144/99 145/449 
f 29/361 28/360 143/100 144/369 
f 28/360 1/9 146/98 143/100 
f 3/442 31/84 151/101 152/451 
f 31/541 190/412 191/103 151/543 
f 30/411 15/444 153/452 154/105 
f 15/90 219/104 218/106 153/107 
f 2/476 20/367 142/108 139/109 
f 20/367 21/370 141/111 142/108 
f 21/413 12/477 140/112 141/371 
f 12/14 2/13 139/488 140/489 
f 4/17 181/113 182/114 148/490 
f 16/47 22/63 150/116 147/117 
f 22/63 210/118 209/119 150/116 
f 23/18 4/479 148/115 149/544 
f 53/26 15/408 30/81 54/27 
f 49/121 13/43 17/46 50/67 
f 56/33 16/47 352/50 351/34 
f 53/91 11/35 342/38 341/94 
f 56/407 12/403 21/110 55/64 
f 104/122 26/7 238/79 239/123 
f 55/64 21/110 254/124 253/125 
f 122/453 119/127 120/128 121/129 
f 5/455 27/131 69/132 70/133 
f 27/131 230/134 231/135 69/132 
f 19/136 6/137 67/138 68/139 
f 6/492 9/140 76/141 67/493 
f 9/140 49/491 75/142 76/141 
f 49/121 50/67 74/143 75/494 
f 50/67 270/66 269/144 74/143 
f 51/92 52/446 72/145 73/146 
f 52/126 10/130 71/147 72/148 
f 10/130 5/150 70/162 71/147 
f 69/132 88/149 89/458 70/133 
f 68/139 87/151 258/152 257/153 
f 67/138 96/154 87/151 68/139 
f 76/141 95/155 96/495 67/493 
f 75/142 94/156 95/155 76/141 
f 74/143 93/157 94/496 75/494 
f 73/146 92/158 242/159 243/160 
f 72/145 91/161 92/158 73/146 
f 71/147 90/166 91/185 72/148 
f 70/162 89/186 90/166 71/147 
f 79/163 58/432 57/460 80/462 
f 78/167 59/433 260/434 259/170 
f 77/497 60/498 59/433 78/167 
f 86/173 61/174 60/499 77/171 
f 85/175 62/176 61/174 86/173 
f 84/177 63/178 62/501 85/500 
f 83/179 64/180 240/181 241/182 
f 82/183 65/184 64/180 83/179 
f 81/205 66/206 65/219 82/220 
f 80/221 57/234 66/206 81/205 
f 88/149 79/163 80/462 89/458 
f 87/151 78/167 259/170 258/152 
f 96/154 77/497 78/167 87/151 
f 95/155 86/173 77/171 96/495 
f 94/156 85/175 86/173 95/155 
f 93/157 84/177 85/500 94/496 
f 92/158 83/179 241/182 242/159 
f 91/161 82/183 83/179 92/158 
f 90/166 81/205 82/220 91/185 
f 89/186 80/221 81/205 90/166 
f 107/187 108/188 113/189 114/190 
f 108/188 235/191 236/192 113/189 
f 109/193 110/194 111/503 112/196 
f 60/499 61/174 101/486 100/485 
f 61/174 62/176 102/197 101/486 
f 62/501 63/178 103/198 102/504 
f 63/178 266/199 265/200 103/198 
f 64/180 65/184 105/201 104/122 
f 65/219 66/206 106/277 105/294 
f 66/206 57/234 97/355 106/277 
f 57/165 58/164 108/188 107/187 
f 58/164 234/435 235/191 108/188 
f 59/168 60/172 110/194 109/193 
f 60/499 100/485 111/195 110/502 
f 100/56 99/55 112/196 111/503 
f 99/55 263/203 262/204 112/196 
f 98/6 97/5 114/190 113/189 
f 97/355 57/234 107/356 114/376 
f 18/58 101/57 116/29 115/32 
f 101/486 102/197 117/482 116/481 
f 102/504 103/198 118/31 117/30 
f 103/198 18/58 115/32 118/31 
f 106/8 26/7 120/128 119/127 
f 26/7 104/122 121/129 120/128 
f 104/122 105/201 122/453 121/129 
f 105/294 106/277 119/377 122/404 
f 125/405 34/438 33/439 126/440 
f 124/207 35/357 34/473 125/468 
f 123/208 36/359 35/358 124/372 
f 126/469 33/472 36/359 123/208 
f 127/209 42/366 41/365 128/210 
f 130/211 43/363 42/366 127/209 
f 129/212 44/364 43/362 130/373 
f 128/505 41/511 44/510 129/506 
f 132/545 38/548 37/385 133/216 
f 131/217 39/379 215/401 214/394 
f 134/470 40/474 39/379 131/217 
f 133/441 37/450 194/454 195/456 
f 135/222 46/223 206/388 205/225 
f 138/226 47/227 46/223 135/222 
f 137/228 48/68 185/71 186/229 
f 136/507 45/69 48/539 137/546 
f 142/108 127/209 128/210 139/109 
f 141/111 130/211 127/209 142/108 
f 140/112 129/212 130/373 141/371 
f 139/488 128/505 129/506 140/489 
f 145/97 125/405 126/440 146/102 
f 144/99 124/207 125/468 145/449 
f 143/100 123/208 124/372 144/369 
f 146/98 126/469 123/208 143/100 
f 147/117 135/222 205/225 204/231 
f 150/116 138/226 135/222 147/117 
f 149/120 137/228 186/229 187/232 
f 148/115 136/507 137/546 149/544 
f 151/101 132/545 133/216 152/451 
f 154/105 131/217 214/394 213/395 
f 153/452 134/470 131/217 154/105 
f 152/457 133/441 195/456 196/459 
f 159/235 223/85 335/236 334/237 
f 161/238 245/239 244/240 162/241 
f 160/242 222/243 221/420 178/245 
f 156/246 254/124 255/247 155/248 
f 169/249 263/203 264/250 168/251 
f 155/375 255/374 347/252 346/253 
f 158/254 252/255 253/125 157/256 
f 159/547 249/538 250/257 189/258 
f 168/251 264/250 265/200 167/259 
f 156/246 228/76 227/83 157/256 
f 176/260 256/261 257/153 175/262 
f 162/241 244/240 243/160 163/263 
f 174/264 232/265 231/135 175/262 
f 164/266 268/267 269/144 163/263 
f 172/268 234/202 233/269 173/270 
f 166/271 266/199 267/272 165/273 
f 173/270 233/269 232/265 174/264 
f 165/273 267/272 268/267 164/266 
f 171/274 261/275 262/204 170/276 
f 166/271 240/181 239/123 167/259 
f 172/436 260/169 261/275 171/274 
f 169/249 237/78 236/192 170/276 
f 197/22 219/104 339/461 338/23 
f 194/386 37/215 38/214 193/278 
f 180/279 8/280 24/72 179/75 
f 181/113 4/17 331/20 354/281 
f 184/70 206/224 207/282 185/383 
f 275/283 200/284 273/285 274/286 
f 189/258 211/287 225/288 224/86 
f 198/448 220/289 199/290 177/96 
f 190/412 212/291 213/233 191/103 
f 197/22 3/21 152/457 196/459 
f 181/113 203/48 204/231 182/114 
f 188/292 23/537 149/120 187/232 
f 193/390 38/384 132/213 192/293 
f 194/454 216/463 217/464 195/456 
f 184/382 45/487 136/230 183/295 
f 185/71 207/391 208/296 186/229 
f 183/295 136/230 148/490 182/114 
f 186/229 208/296 209/393 187/232 
f 192/293 132/213 151/543 191/103 
f 195/456 217/464 218/106 196/459 
f 177/96 199/290 246/422 221/420 
f 188/416 210/392 251/298 250/257 
f 216/40 194/386 193/278 215/41 
f 202/44 180/279 179/75 201/45 
f 203/48 181/113 354/281 353/49 
f 219/104 197/22 196/459 218/106 
f 210/417 188/292 187/232 209/393 
f 215/378 193/390 192/293 214/218 
f 206/388 184/382 183/295 205/225 
f 205/225 183/295 182/114 204/231 
f 214/218 192/293 191/103 213/233 
f 219/104 15/90 340/95 339/461 
f 206/224 46/387 47/389 207/282 
f 200/284 308/299 311/300 273/285 
f 211/396 158/254 226/82 225/397 
f 220/289 14/445 25/89 199/290 
f 212/418 30/411 154/105 213/395 
f 203/48 16/47 147/117 204/231 
f 216/463 40/465 134/466 217/464 
f 207/402 47/227 138/226 208/399 
f 208/399 138/226 150/116 209/119 
f 217/464 134/466 153/107 218/106 
f 199/290 25/89 245/239 246/422 
f 210/414 22/410 252/255 251/400 
f 228/76 156/246 155/248 229/77 
f 237/78 169/249 168/251 238/79 
f 229/368 155/375 346/253 345/80 
f 226/82 158/254 157/256 227/83 
f 223/542 159/547 189/258 224/86 
f 238/79 168/251 167/259 239/123 
f 230/134 176/260 175/262 231/135 
f 242/159 164/266 163/263 243/160 
f 240/181 166/271 165/273 241/182 
f 241/182 165/273 164/266 242/159 
f 235/191 171/274 170/276 236/192 
f 234/435 172/437 171/274 235/191 
f 223/85 31/84 336/88 335/236 
f 245/239 25/89 51/92 244/240 
f 222/243 32/93 177/96 221/420 
f 228/76 29/28 54/27 227/83 
f 244/240 51/92 73/146 243/160 
f 232/265 88/149 69/132 231/135 
f 234/202 58/432 79/163 233/269 
f 233/269 79/163 88/149 232/265 
f 240/181 64/180 104/122 239/123 
f 237/78 98/6 113/189 236/192 
f 225/288 212/415 190/87 224/86 
f 277/301 200/284 275/283 276/302 
f 226/82 30/81 212/398 225/397 
f 306/303 308/299 200/284 277/301 
f 249/61 159/235 334/237 333/62 
f 271/65 161/238 162/241 270/66 
f 248/73 160/242 178/245 247/74 
f 254/124 156/246 157/256 253/125 
f 270/66 162/241 163/263 269/144 
f 258/152 174/264 175/262 257/153 
f 260/434 172/268 173/270 259/170 
f 259/170 173/270 174/264 258/152 
f 266/199 166/271 167/259 265/200 
f 263/203 169/249 170/276 262/204 
f 254/124 21/110 20/59 255/247 
f 263/203 99/55 18/58 264/250 
f 255/374 20/367 348/60 347/252 
f 252/255 22/410 55/64 253/125 
f 249/538 23/536 188/416 250/257 
f 264/250 18/58 103/198 265/200 
f 256/261 19/136 68/139 257/153 
f 268/267 93/157 74/143 269/144 
f 266/199 63/178 84/177 267/272 
f 267/272 84/177 93/157 268/267 
f 261/275 109/193 112/196 262/204 
f 260/169 59/168 109/193 261/275 
f 272/304 201/45 179/75 247/74 
f 251/298 211/287 189/258 250/257 
f 271/65 17/46 201/45 272/304 
f 252/255 158/254 211/396 251/400 
f 245/239 161/238 282/305 283/306 
f 161/238 271/65 281/307 282/305 
f 271/65 272/423 280/308 281/307 
f 272/423 247/419 279/309 280/308 
f 247/534 178/431 278/310 279/513 
f 178/421 221/244 285/311 278/424 
f 221/512 246/297 284/312 285/514 
f 246/297 245/239 283/306 284/312 
f 282/305 309/313 305/314 283/306 
f 281/307 312/315 309/313 282/305 
f 280/308 273/285 311/300 310/316 312/315 281/307 
f 279/309 274/286 273/285 280/308 
f 289/317 286/318 287/319 288/320 
f 290/321 291/322 286/517 289/425 
f 284/312 277/301 276/302 285/514 
f 283/306 305/314 304/323 306/303 277/301 284/312 
f 275/283 274/286 319/324 320/325 
f 274/286 279/309 324/326 319/324 
f 279/513 278/310 323/327 324/524 
f 278/424 285/311 322/328 323/426 
f 285/514 276/302 321/329 322/525 
f 276/302 275/283 320/325 321/329 
f 292/330 325/331 326/332 293/333 
f 297/334 330/335 325/331 292/330 
f 296/336 329/428 330/527 297/526 
f 295/338 328/339 329/337 296/427 
f 294/340 327/341 328/529 295/528 
f 293/333 326/332 327/341 294/340 
f 298/342 287/518 286/516 299/343 
f 303/344 288/520 287/518 298/342 
f 302/345 289/515 288/519 303/530 
f 301/346 290/522 289/535 302/429 
f 300/347 291/523 290/521 301/531 
f 299/343 286/516 291/523 300/347 
f 311/300 308/299 307/348 310/316 
f 308/299 306/303 304/323 307/348 
f 305/314 309/313 307/348 304/323 
f 309/313 312/315 310/316 307/348 
f 313/349 298/342 299/343 314/350 
f 318/351 303/344 298/342 313/349 
f 317/352 302/345 303/530 318/532 
f 316/353 301/346 302/429 317/430 
f 315/354 300/347 301/531 316/533 
f 314/350 299/343 300/347 315/354 
f 319/324 292/330 293/333 320/325 
f 324/326 297/334 292/330 319/324 
f 323/327 296/336 297/526 324/524 
f 322/328 295/338 296/427 323/426 
f 321/329 294/340 295/528 322/525 
f 320/325 293/333 294/340 321/329 
f 325/331 313/349 314/350 326/332 
f 330/335 318/351 313/349 325/331 
f 329/428 317/352 318/532 330/527 
f 328/339 316/353 317/430 329/337 
f 327/341 315/354 316/533 328/529 
f 326/332 314/350 315/354 327/341 
f 344/11 27/131 5/455 343/12 
f 350/15 9/140 6/492 349/16 
f 332/19 24/72 8/280 331/480 
f 338/23 198/467 7/471 337/24 
f 351/34 49/491 9/140 350/15 
f 343/37 5/150 10/130 342/38 
f 341/94 52/126 14/549 340/95 
f 353/49 202/484 13/483 352/50 
f 349/478 6/137 19/136 348/60 
f 333/62 248/73 24/72 332/19 
f 345/80 230/134 27/131 344/11 
f 337/443 7/447 32/93 336/88 
f 352/50 13/483 49/491 351/34 
f 342/38 10/130 52/126 341/94 
f 335/236 222/243 160/242 334/237 
f 347/252 256/261 176/260 346/253 
f 339/461 220/550 198/467 338/23 
f 331/20 8/509 180/508 354/281 
f 354/281 180/508 202/484 353/49 
f 340/95 14/549 220/550 339/461 
f 346/253 176/260 230/134 345/80 
f 336/88 32/93 222/243 335/236 
f 334/237 160/242 248/73 333/62 
f 348/60 19/136 256/261 347/252 
# 350 polygons

