# 3ds Max Wavefront OBJ Exporter v0.99 - (c)2007 guruware
# File Created: 27.10.2025 14:04:24

mtllib man statue.mtl

#
# object Box011
#

v  6.422004 118.238052 5.198160
v  3.605926 118.238052 -8.833989
v  4.543262 149.668518 0.381421
v  6.384446 149.914627 -7.481658
v  6.295168 122.372139 5.192844
v  4.251012 122.343498 -8.914831
v  6.422003 118.238052 -3.332776
v  5.695988 149.800385 -1.878880
v  7.475772 122.343498 -2.615252
v  14.675906 116.709702 9.109666
v  14.675906 113.866135 9.513367
v  16.790245 113.866135 4.710721
v  16.790245 116.709702 3.026098
v  10.702785 113.866135 5.596856
v  10.702785 122.343498 5.596856
v  10.702785 122.343498 -0.843659
v  10.702785 113.866135 0.437263
v  16.790245 90.143608 1.571411
v  14.675906 89.324928 7.599640
v  10.702785 89.602631 5.554792
v  10.702785 90.469353 -0.827139
v  14.675906 104.638542 11.942817
v  16.790245 105.479721 5.859252
v  10.702785 105.479721 3.438682
v  10.702785 104.638542 9.879197
v  14.675906 92.261139 7.887003
v  16.790245 92.261139 1.803436
v  10.702785 92.261139 -0.617133
v  10.702785 92.261139 5.823382
v  10.359588 89.410988 11.193171
v  11.924841 89.301582 11.998760
v  11.924841 90.460266 12.246183
v  10.359588 90.569672 11.440590
v  5.193879 127.078896 5.122059
v  4.462016 127.060242 -8.645378
v  6.159407 127.060242 -2.658347
v  5.374074 139.489990 1.257348
v  6.598625 139.741058 -8.588202
v  6.146103 139.615265 -2.043516
v  3.467436 149.703079 -1.952639
v  2.175727 149.542160 1.309029
v  2.743940 139.383759 0.638162
v  2.556338 127.078896 4.837993
v  3.642375 122.372139 5.192844
v  3.717880 118.238052 5.198160
v  3.717880 118.238052 -3.332776
v  1.494688 118.238052 -9.162015
v  1.833380 122.343498 -9.290462
v  2.289950 127.060242 -9.152139
v  4.212214 139.646713 -9.276040
v  4.676007 149.876373 -9.368832
v  4.757228 149.849045 -7.456375
v  6.785502 149.923676 -6.527992
v  6.452302 139.700378 -6.471986
v  5.010865 127.060242 -6.709479
v  5.293734 122.343498 -6.877870
v  4.516501 118.238052 -7.055179
v  2.213554 118.238052 -7.277138
v  2.567569 166.952164 -2.156967
v  4.305698 166.952164 -6.606169
v  1.905778 153.981293 -1.799559
v  4.142616 154.255798 -5.947365
v  1.318976 165.725952 1.039136
v  1.327824 153.418732 1.016486
v  7.225782 165.484436 -5.465406
v  5.487652 165.484436 -1.016204
v  4.811378 164.770187 -0.017708
v  4.003376 153.903351 0.136701
v  4.594486 154.426682 -1.376402
v  6.326503 154.826965 -5.809954
v  6.062288 165.725952 -11.102622
v  7.709899 164.258240 -8.572048
v  6.806689 155.084213 -8.906538
v  6.055267 154.361877 -11.084648
v  4.730780 158.502808 0.921208
v  5.487652 158.502808 -1.016205
v  7.225784 158.502808 -5.465407
v  7.526572 158.502808 -8.572828
v  6.062290 158.502808 -11.102623
v  1.318976 158.502808 1.039135
v  4.730779 161.557129 0.921208
v  5.487652 161.557129 -1.016204
v  7.225782 161.557129 -5.465406
v  7.526572 161.557129 -8.572828
v  6.062290 161.557129 -11.102623
v  1.318976 161.557129 1.039135
v  -1.734637 158.502808 1.486382
v  -1.433239 152.856049 0.769176
v  -0.417427 152.587753 -3.052245
v  0.379830 149.578384 -2.679522
v  -0.432434 149.436829 0.695017
v  0.135780 139.278427 0.024150
v  -0.059163 127.078896 4.556301
v  1.011747 122.372131 5.192844
v  1.036349 118.238052 5.198160
v  1.036349 118.238052 -3.332776
v  1.845740 139.553162 -9.958130
v  2.067847 149.771027 -9.982844
v  1.669623 149.724350 -8.183258
v  1.410401 153.597198 -6.387297
v  3.574757 153.507889 -11.966146
v  3.870110 158.502808 -12.860439
v  3.870110 161.557129 -12.860439
v  3.149228 166.134888 -11.015156
v  1.807998 167.361084 -7.581923
v  0.230294 167.361084 -3.543375
v  -1.204757 166.134888 0.130015
v  -1.734637 161.557129 1.486383
v  1.826548 151.744766 -1.943263
v  -0.321005 151.031296 -3.103703
v  1.823559 151.615067 -7.050004
v  3.952785 151.955200 -5.882673
v  6.742613 148.607773 -6.520785
v  7.215073 148.664337 -8.728867
v  4.616310 148.559647 -9.356890
v  2.039259 148.455826 -9.979664
v  -0.359295 148.129272 0.608666
v  2.248865 148.234619 1.222679
v  4.879000 148.340836 1.841864
v  5.753925 148.489380 -1.900072
v  6.559623 142.993225 -6.490026
v  6.826509 143.039764 -8.640203
v  4.361598 142.941605 -9.305927
v  1.917279 142.844238 -9.966090
v  -0.047237 142.550354 0.240232
v  2.560923 142.655701 0.854243
v  5.191058 142.761917 1.473429
v  6.001124 142.895813 -1.990488
v  12.566633 139.835297 -5.423272
v  11.338249 145.737946 -5.777144
v  10.349559 145.619568 -1.156433
v  12.008133 139.737885 -0.923736
v  7.441912 141.688232 -1.780615
v  7.989878 147.313934 -1.503001
v  8.978562 147.432312 -6.123713
v  8.000410 141.785645 -6.280152
v  12.001228 123.788383 5.702055
v  12.309728 123.762932 8.590496
v  10.032536 125.323639 8.691173
v  9.724036 125.349091 5.802732
v  14.746753 130.592896 1.378422
v  14.750765 130.632629 -3.156514
v  11.199342 133.069138 -3.380927
v  11.195322 133.029404 1.154009
v  4.848188 148.891693 1.878243
v  2.218053 148.785477 1.259058
v  -0.390108 148.680130 0.645045
v  2.051303 149.009903 -9.981003
v  4.641459 149.114365 -9.361919
v  7.253440 149.219711 -8.737620
v  6.760681 149.162155 -6.523821
v  5.729517 149.041687 -1.891144
v  -2.870460 158.502808 1.767100
v  -2.335528 152.869324 0.416687
v  -1.264445 152.715866 -3.504683
v  -1.362090 149.399277 0.476158
v  -1.319764 148.642593 0.426186
v  -1.288952 148.091721 0.389807
v  -0.976894 142.512817 0.021372
v  -0.793877 139.240875 -0.194709
v  -0.991437 127.078896 4.455894
v  0.074082 122.372131 5.192844
v  0.090660 118.272812 5.196425
v  0.080540 118.238052 -3.332776
v  1.120691 148.418823 -10.201647
v  1.128063 148.972672 -10.201670
v  1.138191 149.733490 -10.201704
v  0.890027 151.584549 -7.555527
v  0.541286 153.571686 -6.857821
v  2.653907 153.513184 -12.325887
v  2.979825 158.502808 -13.208241
v  2.979825 161.557129 -13.208241
v  2.258944 166.134888 -11.362955
v  0.917713 167.361084 -7.929723
v  -0.659991 167.361084 -3.891175
v  -2.095042 166.134888 -0.217785
v  -2.624922 161.557129 1.138584
v  -1.440426 149.396118 0.457716
v  0.842695 167.361084 -7.959030
v  -1.335817 152.726654 -3.542807
v  2.904806 161.557129 -13.237547
v  0.000000 122.343498 -9.575315
v  0.000000 118.238052 -7.233215
v  0.468851 132.325745 -9.794621
v  0.880781 151.584244 -7.560534
v  -1.367288 148.088562 0.371365
v  -2.945478 158.502808 1.737794
v  -0.650439 149.536774 -2.922068
v  -0.872213 139.237701 -0.213151
v  -1.065094 127.078896 4.447960
v  0.000000 122.372131 5.192844
v  1.088401 148.971069 -10.211150
v  1.059855 149.730316 -10.220145
v  -0.735009 167.361084 -3.920482
v  -2.170060 166.134888 -0.247092
v  -1.024025 149.470261 -1.323763
v  0.432567 151.326721 -7.829472
v  -14.675909 113.866135 9.513367
v  -16.790245 113.866135 4.710721
v  -16.790245 116.709702 3.026098
v  -14.675909 116.709702 9.109666
v  -3.605927 118.238052 -8.833989
v  -1.494688 118.238052 -9.162015
v  -1.833380 122.343498 -9.290462
v  -4.251012 122.343498 -8.914831
v  -6.295169 122.372139 5.192844
v  -7.324065 127.078896 3.773860
v  -4.686526 127.078896 4.057927
v  -3.642376 122.372139 5.192844
v  -3.677451 127.060242 -9.522008
v  -4.625928 127.060242 -7.747374
v  -5.293735 122.343498 -6.877870
v  -6.796588 149.295822 -4.819879
v  -5.707075 149.419128 -9.468991
v  -3.478523 149.516418 -9.395232
v  -4.768314 149.370453 -3.891497
v  -6.422003 118.238052 -3.332776
v  -4.516502 118.238052 -7.055179
v  -7.475772 122.343498 -2.615252
v  -6.765017 149.211807 -2.280771
v  -7.644389 148.387146 -1.062755
v  -6.763059 148.537140 -4.832143
v  -6.422005 118.238052 5.198160
v  -10.702784 113.866135 5.596856
v  -10.702784 122.343498 5.596856
v  -10.702784 113.866135 0.437263
v  -10.702784 122.343498 -0.843659
v  -10.702784 90.469353 -0.827139
v  -16.790245 90.143608 1.571411
v  -14.675909 89.324928 7.599640
v  -10.702784 89.602631 5.554792
v  -14.675909 104.638542 11.942817
v  -16.790245 105.479721 5.859252
v  -10.702784 104.638542 9.879197
v  -10.702784 105.479721 3.438682
v  -14.675909 92.261139 7.887003
v  -16.790245 92.261139 1.803436
v  -10.702784 92.261139 5.823382
v  -10.702784 92.261139 -0.617133
v  -10.359588 90.569672 11.440590
v  -10.359588 89.410988 11.193171
v  -11.924841 89.301582 11.998760
v  -11.924841 90.460266 12.246183
v  -7.118501 138.985428 -1.683651
v  -4.488368 139.091660 -1.064465
v  -3.844584 139.319275 -11.046741
v  -4.653566 139.251846 -9.086526
v  -6.610748 127.060242 -4.033710
v  -6.346473 139.110718 -4.984514
v  -7.301517 142.257370 -1.467569
v  -4.671384 142.363602 -0.848384
v  -4.276782 142.591324 -11.254136
v  -4.992892 142.526642 -9.209716
v  -3.717880 118.238052 -3.332776
v  -3.717880 118.238052 5.198160
v  -5.056581 149.250061 -0.393597
v  0.000000 118.238052 -9.394247
v  -2.071023 127.078896 4.339620
v  -1.011747 122.372131 5.192844
v  -1.447290 127.060242 -9.554645
v  -2.213554 118.238052 -7.277138
v  -2.556299 149.584274 -11.071461
v  0.051862 149.689606 -10.457447
v  -0.390916 149.641129 -8.668349
v  -1.880206 139.196991 -0.450452
v  -1.402190 139.419952 -10.597780
v  -2.448420 149.355408 0.220415
v  -2.406094 148.598709 0.170443
v  -5.014254 148.493378 -0.443570
v  -4.923834 149.457916 -10.143849
v  -5.086480 148.721329 -11.642680
v  -2.470330 148.827133 -11.036175
v  -5.628601 148.661774 -9.440501
v  -2.217268 151.736542 -9.224546
v  -4.343504 151.526108 -5.285137
v  -0.061768 151.548248 -8.071150
v  -5.598184 153.418732 -1.689237
v  -5.607032 158.502808 -1.666588
v  -3.665243 158.502808 0.732168
v  -3.400655 152.856049 0.000585
v  -4.645699 154.826965 -10.096367
v  -5.540391 158.502808 -10.452657
v  -7.278521 158.502808 -6.003454
v  -6.377716 154.426682 -5.662815
v  -4.358440 166.952164 -4.862690
v  -1.700312 167.361084 -4.297588
v  -3.135363 166.134888 -0.624198
v  -5.607032 165.725952 -1.666586
v  -8.035393 158.502808 -4.066040
v  -6.968825 153.903351 -4.149713
v  -2.620309 166.952164 -9.311891
v  -7.278522 165.484436 -6.003453
v  -5.540392 165.484436 -10.452655
v  -7.458187 164.770187 -4.810951
v  -5.607032 161.557129 -1.666587
v  -8.035394 161.557129 -4.066040
v  -4.629360 153.749695 -5.339173
v  -2.392520 154.024216 -9.486978
v  -0.870741 154.361877 -13.790371
v  -0.863719 158.502808 -13.808344
v  -3.655103 158.502808 -12.941074
v  -2.899647 155.084213 -12.698426
v  -3.790411 164.258240 -13.064774
v  -0.863719 165.725952 -13.808344
v  -5.540392 161.557129 -10.452655
v  -3.655103 161.557129 -12.941074
v  -0.499683 153.529495 -7.421852
v  1.550429 153.507889 -12.756973
v  -3.665243 161.557129 0.732170
v  -7.278521 161.557129 -6.003453
v  -0.863719 161.557129 -13.808344
v  -1.138749 127.078896 4.440027
v  -0.074082 122.372131 5.192844
v  0.981518 149.727158 -10.238587
v  0.838209 149.705231 -9.274353
v  0.639353 149.682739 -8.425804
v  -0.950550 139.234543 -0.231592
v  -1.518762 149.392960 0.439274
v  -1.476437 148.636261 0.389302
v  -1.036349 118.238052 -3.332776
v  -1.036349 118.238052 5.198160
v  -1.680709 149.495163 -3.164613
v  1.019796 139.519791 -10.152573
v  0.000000 127.060242 -9.605164
v  0.123962 148.932068 -10.434736
v  -0.122608 167.361084 -8.336136
v  -2.163346 150.966003 -4.101567
v  0.871538 151.583893 -7.565542
v  -3.020496 158.502808 1.708486
v  -2.498365 152.869324 0.353072
v  1.939504 158.502808 -13.614652
v  -0.810027 167.361084 -3.949788
v  -2.245078 166.134888 -0.276398
v  -2.239079 152.523193 -4.038903
v  1.218622 166.134888 -11.769366
v  0.368965 153.565582 -6.951156
v  2.471279 153.513184 -12.397231
v  -2.774959 161.557129 1.079970
v  1.939504 161.557129 -13.614652
v  -1.406014 152.710846 -3.581362
v  -1.245570 151.075470 -3.601393
v  -7.613575 147.836288 -1.099134
v  -6.491452 142.391251 -4.931487
v  -6.738650 147.984833 -4.841070
v  -4.983442 147.942520 -0.479949
v  -5.013715 148.170441 -11.607763
v  -5.571472 148.110428 -9.419762
v  -2.375281 148.047852 0.134063
v  -2.063223 142.468933 -0.234371
v  -1.773919 142.693802 -10.750349
v  -2.407746 148.275955 -11.010490
v  -10.950129 144.759308 -6.170799
v  -12.083856 138.764847 -6.595466
v  -10.585296 138.900238 -10.873693
v  -9.782949 144.884903 -10.749491
v  0.176451 148.380585 -10.418205
v  0.708032 142.795410 -10.250771
v  1.317274 142.820343 -10.128139
v  1.117660 148.191177 -10.201637
v  1.097566 148.417877 -10.207090
v  1.437555 139.537018 -10.075781
v  -7.653095 146.760590 -10.039133
v  -6.279352 141.208923 -9.641890
v  -8.820274 146.634995 -5.460442
v  -7.777910 141.073532 -5.363661
v  -9.724036 125.349091 5.802732
v  -12.001228 123.788383 5.702055
v  -12.309728 123.762932 8.590496
v  -10.032536 125.323639 8.691173
v  -15.860722 130.592896 -1.918042
v  -14.899005 130.632629 -6.349832
v  -12.342948 133.029404 -1.381093
v  -11.381239 133.069138 -5.812884
v  1.048676 148.969467 -10.220360
v  -0.080540 118.238052 -3.332776
v  -0.090660 118.272812 5.196425
v  0.767677 167.361084 -7.988337
v  2.829788 158.502808 -13.266851
v  2.108907 166.134888 -11.421570
v  2.829788 161.557129 -13.266851
v  -1.398100 148.639420 0.407744
v  -2.416946 152.870544 0.384880
v  0.455102 153.569153 -6.904480
v  2.562593 153.513702 -12.361559
v  -2.699940 161.557129 1.109276
v  -1.133566 142.506485 -0.015513
v  -1.445624 148.085403 0.352923
v  1.109144 148.418350 -10.204437
v  0.000000 118.238052 -3.332776
v  0.000000 118.276138 5.196259
v  0.000000 118.238052 -3.687004
v  2.904806 158.502808 -13.237547
v  2.183925 166.134888 -11.392262
v  0.000000 118.238052 -7.490481
v  -1.055230 142.509644 0.002930
v  -0.611636 151.057144 -3.347727
# 396 vertices

vt 0.418811 0.891717 0.000000
vt 0.415690 0.929737 0.000000
vt 0.402171 0.934144 0.000000
vt 0.411371 0.892614 0.000000
vt 0.589611 0.225770 0.000000
vt 0.610438 0.237694 0.000000
vt 0.589313 0.269356 0.000000
vt 0.565866 0.255381 0.000000
vt 0.345793 0.888828 0.000000
vt 0.374091 0.184789 0.000000
vt 0.343642 0.182220 0.000000
vt 0.358643 0.141805 0.000000
vt 0.540706 0.290308 0.000000
vt 0.517481 0.272428 0.000000
vt 0.541473 0.237712 0.000000
vt 0.372040 0.407904 0.000000
vt 0.402715 0.458598 0.000000
vt 0.396445 0.486392 0.000000
vt 0.347824 0.418214 0.000000
vt 0.523899 0.177010 0.000000
vt 0.568385 0.210070 0.000000
vt 0.334324 0.954502 0.000000
vt 0.352792 0.384359 0.000000
vt 0.348315 0.366306 0.000000
vt 0.378212 0.401830 0.000000
vt 0.359911 0.867039 0.000000
vt 0.395486 0.860547 0.000000
vt 0.369160 0.898444 0.000000
vt 0.384939 0.821378 0.000000
vt 0.352618 0.945055 0.000000
vt 0.540341 0.976475 0.000000
vt 0.541490 0.933535 0.000000
vt 0.629633 0.922235 0.000000
vt 0.523642 0.835295 0.000000
vt 0.457622 0.885841 0.000000
vt 0.457427 0.927897 0.000000
vt 0.452305 0.866949 0.000000
vt 0.438562 0.825146 0.000000
vt 0.521920 0.880651 0.000000
vt 0.531384 0.933733 0.000000
vt 0.514895 0.844343 0.000000
vt 0.509492 0.792337 0.000000
vt 0.556689 0.856131 0.000000
vt 0.597148 0.969283 0.000000
vt 0.613088 0.975748 0.000000
vt 0.559050 0.864888 0.000000
vt 0.368365 0.308517 0.000000
vt 0.336276 0.305081 0.000000
vt 0.475507 0.389744 0.000000
vt 0.455376 0.371271 0.000000
vt 0.469008 0.238779 0.000000
vt 0.409316 0.333047 0.000000
vt 0.359971 0.333119 0.000000
vt 0.332652 0.329965 0.000000
vt 0.457653 0.413801 0.000000
vt 0.435365 0.396030 0.000000
vt 0.864143 0.057373 0.000000
vt 0.975098 0.052498 0.000000
vt 0.327301 0.380185 0.000000
vt 0.787050 0.100543 0.000000
vt 0.607676 0.279422 0.000000
vt 0.312824 0.180687 0.000000
vt 0.327385 0.139692 0.000000
vt 0.563881 0.305101 0.000000
vt 0.813548 0.075692 0.000000
vt 0.429987 0.483695 0.000000
vt 0.452776 0.498920 0.000000
vt 0.354969 0.519077 0.000000
vt 0.305449 0.305150 0.000000
vt 0.498177 0.403631 0.000000
vt 0.304610 0.391590 0.000000
vt 0.302771 0.385033 0.000000
vt 0.326610 0.378778 0.000000
vt 0.411323 0.462660 0.000000
vt 0.430276 0.455010 0.000000
vt 0.438352 0.478524 0.000000
vt 0.404705 0.454168 0.000000
vt 0.367298 0.478485 0.000000
vt 0.335387 0.431658 0.000000
vt 0.341144 0.501327 0.000000
vt 0.578183 0.165574 0.000000
vt 0.837225 0.413009 0.000000
vt 0.779611 0.398559 0.000000
vt 0.571003 0.136349 0.000000
vt 0.994913 0.600457 0.000000
vt 0.947048 0.599937 0.000000
vt 0.919746 0.489781 0.000000
vt 0.960498 0.457197 0.000000
vt 0.805182 0.540749 0.000000
vt 0.768197 0.554365 0.000000
vt 0.768731 0.486629 0.000000
vt 0.803487 0.484424 0.000000
vt 0.890791 0.452107 0.000000
vt 0.924325 0.409949 0.000000
vt 0.810332 0.620869 0.000000
vt 0.850510 0.527630 0.000000
vt 0.862169 0.605811 0.000000
vt 0.847038 0.507101 0.000000
vt 0.822250 0.444162 0.000000
vt 0.867857 0.475550 0.000000
vt 0.335186 0.436697 0.000000
vt 0.356513 0.478387 0.000000
vt 0.743992 0.160165 0.000000
vt 0.904106 0.734974 0.000000
vt 0.933651 0.675613 0.000000
vt 0.973460 0.696650 0.000000
vt 0.864523 0.659245 0.000000
vt 0.822496 0.697357 0.000000
vt 0.909616 0.603140 0.000000
vt 0.896733 0.668160 0.000000
vt 0.330759 0.484929 0.000000
vt 0.934957 0.809677 0.000000
vt 0.772750 0.430604 0.000000
vt 0.890263 0.508925 0.000000
vt 0.867440 0.720077 0.000000
vt 0.301090 0.180260 0.000000
vt 0.315625 0.138920 0.000000
vt 0.461163 0.504714 0.000000
vt 0.163822 0.530432 0.000000
vt 0.172076 0.539950 0.000000
vt 0.294866 0.305833 0.000000
vt 0.299901 0.394211 0.000000
vt 0.298126 0.387524 0.000000
vt 0.865401 0.086013 0.000000
vt 0.976357 0.081138 0.000000
vt 0.318230 0.437722 0.000000
vt 0.521299 0.418175 0.000000
vt 0.587858 0.318479 0.000000
vt 0.562743 0.362208 0.000000
vt 0.461678 0.493189 0.000000
vt 0.769430 0.629941 0.000000
vt 0.314006 0.454872 0.000000
vt 0.329497 0.518153 0.000000
vt 0.321452 0.510355 0.000000
vt 0.758251 0.397181 0.000000
vt 0.571685 0.125688 0.000000
vt 0.867850 0.779741 0.000000
vt 0.755108 0.555653 0.000000
vt 0.756190 0.487109 0.000000
vt 0.621290 0.128000 0.000000
vt 0.771513 0.700597 0.000000
vt 0.671994 0.122962 0.000000
vt 0.746601 0.119517 0.000000
vt 0.756807 0.430044 0.000000
vt 0.828571 0.758241 0.000000
vt 0.305970 0.473007 0.000000
vt 0.302211 0.457927 0.000000
vt 0.346139 0.371955 0.000000
vt 0.398509 0.353919 0.000000
vt 0.316167 0.676810 0.000000
vt 0.325276 0.377208 0.000000
vt 0.430416 0.453747 0.000000
vt 0.406534 0.447281 0.000000
vt 0.301752 0.380634 0.000000
vt 0.305035 0.331402 0.000000
vt 0.480621 0.429778 0.000000
vt 0.446216 0.472518 0.000000
vt 0.351867 0.691477 0.000000
vt 0.388196 0.697550 0.000000
vt 0.367742 0.739685 0.000000
vt 0.336706 0.727607 0.000000
vt 0.467828 0.488070 0.000000
vt 0.503060 0.446211 0.000000
vt 0.100215 0.470281 0.000000
vt 0.136593 0.508856 0.000000
vt 0.474205 0.494760 0.000000
vt 0.081069 0.442381 0.000000
vt 0.317488 0.724768 0.000000
vt 0.331701 0.760908 0.000000
vt 0.333508 0.684247 0.000000
vt 0.365509 0.664137 0.000000
vt 0.286452 0.796982 0.000000
vt 0.290867 0.769428 0.000000
vt 0.523917 0.744642 0.000000
vt 0.323899 0.801747 0.000000
vt 0.448698 0.724114 0.000000
vt 0.417556 0.744967 0.000000
vt 0.441742 0.690730 0.000000
vt 0.424577 0.649727 0.000000
vt 0.468453 0.499680 0.000000
vt 0.865849 0.096222 0.000000
vt 0.976778 0.091244 0.000000
vt 0.307896 0.440602 0.000000
vt 0.306044 0.418472 0.000000
vt 0.755050 0.631796 0.000000
vt 0.857052 0.793155 0.000000
vt 0.753218 0.706591 0.000000
vt 0.815520 0.768950 0.000000
vt 0.299456 0.180331 0.000000
vt 0.313270 0.138618 0.000000
vt 0.153310 0.520319 0.000000
vt 0.294292 0.306087 0.000000
vt 0.303893 0.393385 0.000000
vt 0.302445 0.386714 0.000000
vt 0.754007 0.555754 0.000000
vt 0.755139 0.487176 0.000000
vt 0.672245 0.121887 0.000000
vt 0.746699 0.118440 0.000000
vt 0.755430 0.430089 0.000000
vt 0.756747 0.397218 0.000000
vt 0.296853 0.332828 0.000000
vt 0.296876 0.382856 0.000000
vt 0.139943 0.511527 0.000000
vt 0.468669 0.499639 0.000000
vt 0.865887 0.097082 0.000000
vt 0.976819 0.092213 0.000000
vt 0.861280 0.097285 0.000000
vt 0.753839 0.631914 0.000000
vt 0.643287 0.795082 0.000000
vt 0.623525 0.116439 0.000000
vt 0.571745 0.124726 0.000000
vt 0.751589 0.707070 0.000000
vt 0.685405 0.770082 0.000000
vt 0.811811 0.099456 0.000000
vt 0.815157 0.099309 0.000000
vt 0.310571 0.510412 0.000000
vt 0.298238 0.333099 0.000000
vt 0.301649 0.382571 0.000000
vt 0.309379 0.455652 0.000000
vt 0.099100 0.891708 0.000000
vt 0.091612 0.891957 0.000000
vt 0.076161 0.852334 0.000000
vt 0.090197 0.854611 0.000000
vt 0.032419 0.235132 0.000000
vt 0.057152 0.264195 0.000000
vt 0.033808 0.279343 0.000000
vt 0.011966 0.247930 0.000000
vt 0.027417 0.905801 0.000000
vt 0.264443 0.140408 0.000000
vt 0.257852 0.185083 0.000000
vt 0.229007 0.189933 0.000000
vt 0.081005 0.244550 0.000000
vt 0.094633 0.287006 0.000000
vt 0.073107 0.305821 0.000000
vt 0.231017 0.421556 0.000000
vt 0.257060 0.428464 0.000000
vt 0.218649 0.502238 0.000000
vt 0.205954 0.474755 0.000000
vt 0.096770 0.183098 0.000000
vt 0.006004 0.842643 0.000000
vt 0.053252 0.218053 0.000000
vt 0.224563 0.414669 0.000000
vt 0.253364 0.378518 0.000000
vt 0.250110 0.396214 0.000000
vt 0.049024 0.892728 0.000000
vt 0.080896 0.926125 0.000000
vt 0.044732 0.925167 0.000000
vt 0.076484 0.966441 0.000000
vt 0.025525 0.849173 0.000000
vt 0.319980 0.841046 0.000000
vt 0.313694 0.913354 0.000000
vt 0.274865 0.933323 0.000000
vt 0.261211 0.863319 0.000000
vt 0.131721 0.850024 0.000000
vt 0.138351 0.891555 0.000000
vt 0.136037 0.911040 0.000000
vt 0.128891 0.954461 0.000000
vt 0.203907 0.832891 0.000000
vt 0.202703 0.886775 0.000000
vt 0.201353 0.923720 0.000000
vt 0.204019 0.975947 0.000000
vt 0.240840 0.905683 0.000000
vt 0.241818 0.896668 0.000000
vt 0.296135 0.985139 0.000000
vt 0.311432 0.977273 0.000000
vt 0.255036 0.312426 0.000000
vt 0.224665 0.320122 0.000000
vt 0.145223 0.388107 0.000000
vt 0.126798 0.407436 0.000000
vt 0.139255 0.250449 0.000000
vt 0.186799 0.347510 0.000000
vt 0.263010 0.336807 0.000000
vt 0.236605 0.344153 0.000000
vt 0.049858 0.625641 0.000000
vt 0.147096 0.430342 0.000000
vt 0.867629 0.136792 0.000000
vt 0.978585 0.131926 0.000000
vt 0.277339 0.387637 0.000000
vt 0.297159 0.138637 0.000000
vt 0.287451 0.181726 0.000000
vt 0.050258 0.320817 0.000000
vt 0.815623 0.122976 0.000000
vt 0.183838 0.497306 0.000000
vt 0.182783 0.531920 0.000000
vt 0.162448 0.513764 0.000000
vt 0.284414 0.307611 0.000000
vt 0.105577 0.422717 0.000000
vt 0.277136 0.385318 0.000000
vt 0.301791 0.386062 0.000000
vt 0.302673 0.392568 0.000000
vt 0.174056 0.492578 0.000000
vt 0.177759 0.468269 0.000000
vt 0.198148 0.477060 0.000000
vt 0.203402 0.469158 0.000000
vt 0.257981 0.450578 0.000000
vt 0.246813 0.506610 0.000000
vt 0.283720 0.508157 0.000000
vt 0.641464 0.362258 0.000000
vt 0.720821 0.330075 0.000000
vt 0.730635 0.398798 0.000000
vt 0.666277 0.418938 0.000000
vt 0.510182 0.615413 0.000000
vt 0.540434 0.473088 0.000000
vt 0.582165 0.507111 0.000000
vt 0.557687 0.618408 0.000000
vt 0.702431 0.549203 0.000000
vt 0.705596 0.491089 0.000000
vt 0.741592 0.488563 0.000000
vt 0.739793 0.556755 0.000000
vt 0.572242 0.424983 0.000000
vt 0.609012 0.466657 0.000000
vt 0.697067 0.629648 0.000000
vt 0.642875 0.622478 0.000000
vt 0.655025 0.544214 0.000000
vt 0.658059 0.522245 0.000000
vt 0.634764 0.489950 0.000000
vt 0.683070 0.450456 0.000000
vt 0.631198 0.072912 0.000000
vt 0.253453 0.503783 0.000000
vt 0.548226 0.763261 0.000000
vt 0.531655 0.707121 0.000000
vt 0.571631 0.688787 0.000000
vt 0.597467 0.740017 0.000000
vt 0.676276 0.702460 0.000000
vt 0.638642 0.671262 0.000000
vt 0.607511 0.680433 0.000000
vt 0.595145 0.619948 0.000000
vt 0.746119 0.095455 0.000000
vt 0.284808 0.490096 0.000000
vt 0.738099 0.431790 0.000000
vt 0.613500 0.524849 0.000000
vt 0.633572 0.725248 0.000000
vt 0.310323 0.138420 0.000000
vt 0.298220 0.180665 0.000000
vt 0.154272 0.520090 0.000000
vt 0.294017 0.306190 0.000000
vt 0.306883 0.386132 0.000000
vt 0.308208 0.393060 0.000000
vt 0.866373 0.108151 0.000000
vt 0.977329 0.103285 0.000000
vt 0.295369 0.438402 0.000000
vt 0.084478 0.439138 0.000000
vt 0.152132 0.508840 0.000000
vt 0.738229 0.632604 0.000000
vt 0.289575 0.454217 0.000000
vt 0.303258 0.510910 0.000000
vt 0.631377 0.780821 0.000000
vt 0.754089 0.487247 0.000000
vt 0.752906 0.555851 0.000000
vt 0.287778 0.467414 0.000000
vt 0.730726 0.702828 0.000000
vt 0.745676 0.106348 0.000000
vt 0.671642 0.113508 0.000000
vt 0.755245 0.397260 0.000000
vt 0.754053 0.430138 0.000000
vt 0.670357 0.759460 0.000000
vt 0.623713 0.115546 0.000000
vt 0.255430 0.382507 0.000000
vt 0.033466 0.710003 0.000000
vt 0.067305 0.731680 0.000000
vt 0.277529 0.382895 0.000000
vt 0.177809 0.467420 0.000000
vt 0.026481 0.660954 0.000000
vt 0.301289 0.381423 0.000000
vt 0.290662 0.333101 0.000000
vt 0.164900 0.487121 0.000000
vt 0.125753 0.447563 0.000000
vt 0.070478 0.700411 0.000000
vt 0.063009 0.661653 0.000000
vt 0.092160 0.657117 0.000000
vt 0.106519 0.696635 0.000000
vt 0.144924 0.504095 0.000000
vt 0.139342 0.511313 0.000000
vt 0.105157 0.465655 0.000000
vt 0.065573 0.626410 0.000000
vt 0.045021 0.661220 0.000000
vt 0.051749 0.704807 0.000000
vt 0.082801 0.731697 0.000000
vt 0.262177 0.718688 0.000000
vt 0.283497 0.701797 0.000000
vt 0.281647 0.681178 0.000000
vt 0.258374 0.668926 0.000000
vt 0.147723 0.666909 0.000000
vt 0.176617 0.689638 0.000000
vt 0.170606 0.720049 0.000000
vt 0.142293 0.637250 0.000000
vt 0.146033 0.515808 0.000000
vt 0.865925 0.097943 0.000000
vt 0.308401 0.101536 0.000000
vt 0.752628 0.632025 0.000000
vt 0.642389 0.793993 0.000000
vt 0.571806 0.123764 0.000000
vt 0.749890 0.706782 0.000000
vt 0.684228 0.769274 0.000000
vt 0.299363 0.332613 0.000000
vt 0.306415 0.381834 0.000000
vt 0.015556 0.289874 0.000000
vt 0.859318 0.356772 0.000000
vt 0.783927 0.329202 0.000000
vt 0.680512 0.186824 0.000000
vt 0.619823 0.188662 0.000000
vt 0.598644 0.188994 0.000000
vt 0.953550 0.758756 0.000000
vt 0.720449 0.178976 0.000000
vt 0.669461 0.133801 0.000000
vt 0.745614 0.130374 0.000000
vt 0.451148 0.514290 0.000000
vt 0.343142 0.528810 0.000000
vt 0.035515 0.330158 0.000000
vt 0.055899 0.377351 0.000000
vt 0.301559 0.514238 0.000000
vt 0.754849 0.328676 0.000000
vt 0.318874 0.489432 0.000000
vt 0.924560 0.824712 0.000000
vt 0.508460 0.450414 0.000000
vt 0.476520 0.492225 0.000000
vt 0.525154 0.421130 0.000000
vt 0.462007 0.504903 0.000000
vt 0.317404 0.489650 0.000000
vt 0.671444 0.114594 0.000000
vt 0.301099 0.490470 0.000000
vt 0.578722 0.831158 0.000000
vt 0.745632 0.107428 0.000000
vt 0.473704 0.494988 0.000000
vt 0.145783 0.515749 0.000000
vt 0.752232 0.328714 0.000000
vt 0.583422 0.082447 0.000000
vt 0.572458 0.113101 0.000000
vt 0.688133 0.046796 0.000000
vt 0.627751 0.053166 0.000000
vt 0.606720 0.055693 0.000000
vt 0.690304 0.073012 0.000000
vt 0.748223 0.065426 0.000000
vt 0.726778 0.049546 0.000000
vt 0.567322 0.814830 0.000000
vt 0.673633 0.102557 0.000000
vt 0.577731 0.829747 0.000000
vt 0.299420 0.490102 0.000000
vt 0.749615 0.328747 0.000000
vt 0.792646 0.061710 0.000000
vt 0.789369 0.084446 0.000000
vt 0.862875 0.028492 0.000000
vt 0.815354 0.050969 0.000000
vt 0.973830 0.023616 0.000000
vt 0.360388 0.104638 0.000000
vt 0.625257 0.245923 0.000000
vt -0.002664 0.256501 0.000000
vt 0.328209 0.102503 0.000000
vt 0.315093 0.102095 0.000000
vt 0.311695 0.101743 0.000000
vt 0.796027 0.138736 0.000000
vt 0.790771 0.116374 0.000000
vt 0.868896 0.165673 0.000000
vt 0.819589 0.147446 0.000000
vt 0.979852 0.160807 0.000000
vt 0.262797 0.103593 0.000000
vt 0.295330 0.101706 0.000000
vt 0.976863 0.093182 0.000000
vt 0.856168 0.794271 0.000000
vt 0.923565 0.826140 0.000000
vt 0.814442 0.769845 0.000000
vt 0.316207 0.759025 0.000000
vt 0.167090 0.411177 0.000000
vt 0.343673 0.804313 0.000000
vt 0.392820 0.971623 0.000000
vt 0.576436 0.834369 0.000000
vt 0.517433 0.790259 0.000000
vt 0.636964 0.851290 0.000000
vt 0.534577 0.888235 0.000000
vt 0.589171 0.905824 0.000000
vt 0.453593 0.969503 0.000000
vt 0.531124 0.976627 0.000000
vt 0.560410 0.852462 0.000000
vt 0.562730 0.866022 0.000000
vt 0.038323 0.989641 0.000000
vt 0.061173 0.816735 0.000000
vt 0.212176 0.976779 0.000000
vt 0.206207 0.789285 0.000000
vt 0.211378 0.931325 0.000000
vt 0.214050 0.877351 0.000000
vt 0.213927 0.831535 0.000000
vt 0.121550 0.809497 0.000000
vt 0.197072 0.790550 0.000000
vt 0.245279 0.894982 0.000000
vt 0.245081 0.908737 0.000000
vt 0.351031 0.659680 0.000000
vt 0.383331 0.397953 0.000000
vt 0.298484 0.722108 0.000000
vt 0.219306 0.410749 0.000000
vt 0.199919 0.367807 0.000000
vt 0.200888 0.461203 0.000000
vt 0.615188 0.159505 0.000000
vt 0.674141 0.163750 0.000000
vt 0.320505 0.464899 0.000000
vt 0.623351 0.117338 0.000000
vt 0.302725 0.473584 0.000000
vt 0.262301 0.458264 0.000000
vt 0.625952 0.104941 0.000000
vt 0.300219 0.472945 0.000000
vt 0.366895 0.621013 0.000000
vt 0.497846 0.777023 0.000000
vt 0.511765 0.702960 0.000000
vt 0.500759 0.755321 0.000000
vt 0.328314 0.774193 0.000000
vt 0.527289 0.724700 0.000000
vt 0.401215 0.770135 0.000000
vt 0.353394 0.618683 0.000000
vt 0.057470 0.769397 0.000000
vt 0.070591 0.772639 0.000000
vt 0.257919 0.769423 0.000000
vt 0.259067 0.647336 0.000000
vt 0.284015 0.796700 0.000000
vt 0.264484 0.816632 0.000000
vt 0.238389 0.789355 0.000000
vt 0.140410 0.752422 0.000000
vt 0.344218 0.979334 0.000000
vt 0.011966 0.816580 0.000000
vt 0.391294 0.144735 0.000000
vt 0.490270 0.199170 0.000000
vt 0.391636 0.105900 0.000000
vt 0.230166 0.143393 0.000000
vt 0.131809 0.203742 0.000000
vt 0.231241 0.104403 0.000000
vt 0.431072 0.515294 0.000000
vt 0.285726 0.527343 0.000000
vt 0.270756 0.521035 0.000000
vt 0.442127 0.522888 0.000000
# 527 texture coords

o Box011
g Box011
usemtl wire_115169045
f 11/1 12/2 13/3 10/4 
f 2/5 47/6 48/7 6/8 
f 5/518 34/10 43/11 44/12 
f 6/8 35/13 55/14 56/15 
f 8/16 53/17 52/18 40/19 
f 7/20 57/21 56/15 9/519 
f 8/16 3/23 145/24 152/25 
f 5/9 1/26 14/27 15/28 
f 1/26 7/464 17/29 14/27 
f 7/516 9/22 16/30 17/465 
f 9/22 5/9 15/28 16/30 
f 14/27 11/1 10/4 15/28 
f 21/466 18/468 19/33 20/470 
f 16/30 13/3 12/2 17/465 
f 15/28 10/4 13/3 16/30 
f 12/2 11/1 22/35 23/36 
f 11/1 14/27 25/37 22/35 
f 14/27 17/29 24/38 25/37 
f 17/465 12/2 23/36 24/471 
f 22/35 26/39 27/40 23/36 
f 25/37 29/41 26/39 22/35 
f 24/38 28/42 29/41 25/37 
f 23/36 27/40 28/472 24/471 
f 26/39 19/469 18/32 27/40 
f 33/43 30/473 31/474 32/46 
f 28/42 21/467 20/34 29/41 
f 27/40 18/32 21/31 28/472 
f 20/470 19/33 31/45 30/44 
f 19/469 26/39 32/46 31/474 
f 26/39 29/41 33/43 32/46 
f 29/41 20/34 30/473 33/43 
f 34/10 37/47 42/48 43/11 
f 35/13 38/49 54/50 55/14 
f 34/10 5/518 9/519 36/51 
f 37/47 34/10 36/51 39/52 
f 37/47 127/53 126/54 42/48 
f 38/49 122/55 121/56 54/50 
f 46/57 7/442 1/444 45/58 
f 41/59 3/23 8/16 40/19 
f 45/445 1/520 5/518 44/12 
f 47/6 257/446 182/61 48/7 
f 43/11 93/62 94/63 44/12 
f 49/64 35/13 6/8 48/7 
f 47/441 2/440 57/443 58/65 
f 51/66 98/67 99/524 52/18 
f 42/48 92/69 93/62 43/11 
f 50/70 38/49 35/13 49/64 
f 41/59 91/71 147/72 146/73 
f 51/66 4/74 150/75 149/76 
f 55/14 36/51 9/519 56/15 
f 53/17 4/74 51/66 52/18 
f 57/21 2/5 6/8 56/15 
f 54/50 39/52 36/51 55/14 
f 53/17 8/16 152/25 151/77 
f 57/443 7/442 46/57 58/65 
f 40/19 52/18 112/78 109/79 
f 52/18 99/68 111/80 112/78 
f 64/398 80/82 87/83 88/399 
f 70/85 77/86 76/87 69/88 
f 59/89 106/90 107/91 63/92 
f 69/88 76/87 75/93 68/94 
f 60/95 59/89 66/96 65/97 
f 59/89 63/92 67/98 66/96 
f 63/92 86/99 81/100 67/98 
f 64/81 61/492 69/401 68/402 
f 61/492 62/493 70/400 69/401 
f 74/403 79/104 78/105 73/106 
f 60/95 65/97 72/107 71/108 
f 65/97 83/109 84/110 72/107 
f 70/400 62/493 74/103 73/404 
f 62/493 100/405 101/406 74/103 
f 80/82 86/99 108/113 87/83 
f 77/86 83/109 82/114 76/87 
f 76/87 82/114 81/100 75/93 
f 80/82 64/398 68/94 75/93 
f 79/104 85/115 84/110 78/105 
f 77/86 70/85 73/106 78/105 
f 86/99 80/82 75/93 81/100 
f 83/109 77/86 78/105 84/110 
f 86/99 63/92 107/91 108/113 
f 83/109 65/97 66/96 82/114 
f 82/114 66/96 67/98 81/100 
f 85/115 71/108 72/107 84/110 
f 93/62 161/116 162/117 94/63 
f 98/67 167/118 315/407 316/527 99/524 
f 92/69 160/121 161/116 93/62 
f 91/71 156/122 157/123 147/72 
f 96/124 46/57 45/58 95/125 
f 91/71 41/59 40/19 90/126 
f 95/448 45/445 44/12 94/63 
f 97/127 50/70 49/64 324/128 184/129 
f 98/67 51/66 149/76 148/130 
f 106/90 59/89 60/95 105/131 
f 90/126 40/19 109/79 110/132 
f 99/68 316/408 197/133 168/134 111/80 
f 87/83 153/135 154/412 88/399 
f 102/137 79/104 74/403 101/112 
f 106/90 175/138 176/139 107/91 
f 89/140 61/492 64/81 88/84 
f 105/131 60/95 71/108 104/141 
f 100/405 169/142 170/143 101/406 
f 108/113 177/144 153/135 87/83 
f 103/145 85/115 79/104 102/137 
f 107/91 176/139 177/144 108/113 
f 104/141 71/108 85/115 103/145 
f 110/132 89/494 155/146 341/147 
f 112/78 62/102 61/101 109/79 
f 111/80 100/111 62/102 112/78 
f 109/79 61/101 89/494 110/132 
f 119/148 127/53 128/149 120/487 
f 119/148 145/24 146/73 118/151 
f 114/152 150/75 151/77 113/153 
f 117/154 125/155 126/54 118/151 
f 114/152 122/55 123/156 115/157 
f 131/158 132/159 129/160 130/161 
f 116/162 124/163 358/415 359/416 165/166 
f 115/157 123/156 124/163 116/162 
f 127/53 119/148 118/151 126/54 
f 122/55 114/152 113/153 121/56 
f 127/53 37/47 39/52 128/149 
f 125/155 92/69 42/48 126/54 
f 122/55 38/49 50/70 123/156 
f 128/149 39/52 54/50 121/56 
f 124/163 97/127 361/417 358/415 
f 123/156 50/70 97/127 124/163 
f 121/462 113/488 135/168 136/169 
f 113/488 120/150 134/170 135/168 
f 120/150 128/486 133/171 134/170 
f 128/486 121/507 136/500 133/171 
f 135/168 130/161 129/160 136/169 
f 134/170 131/158 130/161 135/168 
f 133/171 132/159 131/158 134/170 
f 140/172 137/173 138/504 139/175 
f 129/160 132/159 141/176 142/177 
f 132/159 133/171 144/178 141/176 
f 133/171 136/500 143/179 144/178 
f 136/169 129/160 142/177 143/506 
f 141/176 138/174 137/503 142/177 
f 144/178 139/505 138/174 141/176 
f 143/179 140/502 139/505 144/178 
f 142/177 137/503 140/501 143/506 
f 145/24 119/148 120/487 152/25 
f 147/72 117/154 118/151 146/73 
f 150/75 114/152 115/157 149/76 
f 152/25 120/487 113/153 151/77 
f 148/130 116/162 165/166 166/180 
f 149/76 115/157 116/162 148/130 
f 145/24 3/23 41/59 146/73 
f 150/75 4/74 53/17 151/77 
f 164/181 96/124 95/125 163/182 
f 156/122 91/71 90/126 188/183 196/184 
f 163/449 95/448 94/63 162/117 
f 167/118 98/67 148/130 166/180 
f 175/138 106/90 105/131 174/185 
f 171/186 102/137 101/112 170/414 
f 155/495 89/140 88/84 154/136 
f 174/185 105/131 104/141 173/187 
f 172/188 103/145 102/137 171/186 
f 173/187 104/141 103/145 172/188 
f 161/116 190/189 191/190 162/117 
f 167/118 193/418 315/407 
f 160/121 189/192 190/189 161/116 
f 156/122 178/193 381/194 157/123 
f 175/138 194/195 195/196 176/139 
f 169/142 383/197 384/198 170/143 
f 177/144 385/199 187/200 153/135 
f 176/139 195/196 385/199 177/144 
f 169/413 100/111 111/80 168/134 
f 159/201 125/155 117/154 158/202 
f 160/121 92/69 125/155 159/201 
f 165/166 388/424 192/204 166/180 
f 158/202 117/154 147/72 157/123 
f 389/205 164/181 163/182 390/206 
f 178/193 156/122 196/184 
f 390/450 163/449 162/117 191/190 
f 391/207 164/181 389/205 
f 193/418 167/118 166/180 192/204 
f 194/195 175/138 174/185 179/208 
f 392/459 171/186 170/414 384/460 
f 180/210 155/495 154/136 382/211 
f 179/208 174/185 173/187 393/212 
f 181/461 172/188 171/186 392/459 
f 393/212 173/187 172/188 181/461 
f 324/128 49/64 48/7 182/61 
f 394/214 58/65 46/57 96/124 183/215 
f 257/60 47/441 58/65 394/214 
f 383/419 169/413 168/134 185/216 
f 395/217 159/201 158/202 186/218 
f 189/192 160/121 159/201 395/217 
f 186/218 158/202 157/123 381/194 
f 183/215 96/124 164/181 391/207 
f 361/417 97/127 184/129 
f 188/183 90/126 110/132 341/147 396/219 
f 185/216 168/134 197/411 
f 388/424 165/166 359/416 
f 198/220 201/221 200/222 199/223 
f 202/224 205/225 204/226 203/227 
f 206/521 209/229 208/230 207/231 
f 205/225 212/232 211/233 210/234 
f 213/235 216/236 215/237 214/238 
f 217/239 219/522 212/232 218/241 
f 213/235 222/242 221/243 220/244 
f 206/228 225/245 224/246 223/247 
f 223/247 224/246 226/248 217/475 
f 217/517 226/476 227/249 219/240 
f 219/240 227/249 225/245 206/228 
f 224/246 225/245 201/221 198/220 
f 228/250 231/251 230/252 229/253 
f 227/249 226/476 199/223 200/222 
f 225/245 227/249 200/222 201/221 
f 199/223 233/254 232/255 198/220 
f 198/220 232/255 234/256 224/246 
f 224/246 234/256 235/257 226/248 
f 226/476 235/482 233/254 199/223 
f 232/255 233/254 237/258 236/259 
f 234/256 232/255 236/259 238/260 
f 235/257 234/256 238/260 239/261 
f 233/254 235/482 239/483 237/258 
f 236/259 237/258 229/481 230/480 
f 240/262 243/263 242/484 241/485 
f 239/261 238/260 231/479 228/477 
f 237/258 239/483 228/478 229/481 
f 231/251 241/265 242/264 230/252 
f 230/480 242/484 243/263 236/259 
f 236/259 243/263 240/262 238/260 
f 238/260 240/262 241/485 231/479 
f 207/231 208/230 245/266 244/267 
f 210/234 211/233 247/268 246/269 
f 207/231 248/270 219/522 206/521 
f 244/267 249/271 248/270 207/231 
f 244/267 245/266 251/272 250/273 
f 246/269 247/268 253/463 252/275 
f 254/276 255/277 223/455 217/453 
f 256/278 216/236 213/235 220/244 
f 255/456 209/229 206/521 223/523 
f 203/227 204/226 182/397 257/447 
f 208/230 209/229 259/279 258/280 
f 260/281 204/226 205/225 210/234 
f 203/452 261/282 218/454 202/451 
f 262/283 215/237 264/284 263/285 
f 245/266 208/230 258/280 265/286 
f 266/287 260/281 210/234 246/269 
f 256/278 269/288 268/289 267/290 
f 262/283 272/291 271/292 270/293 
f 211/233 212/232 219/522 248/270 
f 214/238 215/237 262/283 270/293 
f 218/241 212/232 205/225 202/224 
f 247/268 211/233 248/270 249/271 
f 214/238 273/294 222/242 213/235 
f 218/454 261/282 254/276 217/453 
f 216/236 275/295 274/296 215/237 
f 215/237 274/296 276/297 264/526 
f 277/298 280/299 279/300 278/301 
f 281/302 284/303 283/304 282/305 
f 285/306 288/307 287/308 286/309 
f 284/303 290/310 289/311 283/304 
f 291/312 293/313 292/314 285/306 
f 285/306 292/314 294/315 288/307 
f 288/307 294/315 296/316 295/317 
f 277/427 290/431 284/430 297/318 
f 297/318 284/430 281/429 298/432 
f 299/320 302/321 301/322 300/323 
f 291/312 304/324 303/325 293/313 
f 293/313 303/325 306/326 305/327 
f 281/429 302/434 299/433 298/432 
f 298/432 299/433 308/328 307/436 
f 278/301 279/300 309/330 295/317 
f 282/305 283/304 310/331 305/327 
f 283/304 289/311 296/316 310/331 
f 278/301 289/311 290/310 277/298 
f 300/323 301/322 306/326 311/332 
f 282/305 301/322 302/321 281/302 
f 295/317 296/316 289/311 278/301 
f 305/327 306/326 301/322 282/305 
f 295/317 309/330 287/308 288/307 
f 305/327 310/331 292/314 293/313 
f 310/331 296/316 294/315 292/314 
f 311/332 306/326 303/325 304/324 
f 258/280 259/279 313/333 312/334 
f 263/285 264/284 316/120 315/119 314/335 
f 265/286 258/280 312/334 317/336 
f 267/290 268/289 319/337 318/338 
f 320/339 321/340 255/277 254/276 
f 267/290 322/341 216/236 256/278 
f 321/457 259/279 209/229 255/456 
f 323/342 184/410 324/409 260/281 266/287 
f 263/285 325/343 272/291 262/283 
f 286/309 326/344 291/312 285/306 
f 322/341 327/345 275/295 216/236 
f 264/526 276/297 328/346 197/411 316/525 
f 331/347 308/435 299/320 300/323 
f 286/309 287/308 333/348 332/349 
f 334/498 280/428 277/427 297/318 
f 326/344 335/351 304/324 291/312 
f 307/436 308/328 337/352 336/353 
f 309/330 279/300 329/354 338/355 
f 339/356 331/347 300/323 311/332 
f 287/308 309/330 338/355 333/348 
f 335/351 339/356 311/332 304/324 
f 327/345 341/147 340/499 334/350 
f 274/296 275/295 297/497 298/319 
f 276/297 274/296 298/319 307/329 
f 275/295 327/345 334/350 297/497 
f 342/358 344/489 343/490 250/273 
f 342/358 345/361 269/288 221/243 
f 346/362 347/491 273/294 271/292 
f 348/364 345/361 251/272 349/365 
f 346/362 351/366 350/367 252/275 
f 352/368 355/369 354/370 353/371 
f 356/372 360/373 359/165 358/164 357/374 
f 351/366 356/372 357/374 350/367 
f 250/273 251/272 345/361 342/358 
f 252/275 253/463 347/491 346/362 
f 250/273 343/490 249/271 244/267 
f 349/365 251/272 245/266 265/286 
f 252/275 350/367 266/287 246/269 
f 343/490 253/463 247/268 249/271 
f 357/374 358/164 361/167 323/342 
f 350/367 357/374 323/342 266/287 
f 253/274 363/375 362/376 347/363 
f 347/363 362/376 364/377 344/359 
f 344/359 364/377 365/378 343/360 
f 343/360 365/378 363/509 253/508 
f 362/376 363/375 354/370 355/369 
f 364/377 362/376 355/369 352/368 
f 365/378 364/377 352/368 353/371 
f 366/510 369/512 368/513 367/514 
f 354/370 371/383 370/384 353/371 
f 353/371 370/384 372/385 365/378 
f 365/378 372/385 373/515 363/509 
f 363/375 373/386 371/383 354/370 
f 370/384 371/383 367/382 368/381 
f 372/385 370/384 368/381 369/380 
f 373/515 372/385 369/380 366/379 
f 371/383 373/386 366/511 367/382 
f 221/243 222/242 344/489 342/358 
f 268/289 269/288 345/361 348/364 
f 271/292 272/291 351/366 346/362 
f 222/242 273/294 347/491 344/489 
f 325/343 374/387 360/373 356/372 
f 272/291 325/343 356/372 351/366 
f 221/243 269/288 256/278 220/244 
f 271/292 273/294 214/238 270/293 
f 375/388 376/458 321/340 320/339 
f 318/338 196/184 188/183 322/341 267/290 
f 376/389 313/333 259/279 321/457 
f 314/335 374/387 325/343 263/285 
f 332/349 377/390 326/344 286/309 
f 378/391 337/437 308/435 331/347 
f 340/357 330/392 280/428 334/498 
f 377/390 379/393 335/351 326/344 
f 380/394 378/391 331/347 339/356 
f 379/393 380/394 339/356 335/351 
f 312/334 313/333 191/190 190/189 
f 314/335 315/119 193/191 
f 317/336 312/334 190/189 189/192 
f 318/338 319/337 381/194 178/193 
f 332/349 333/348 195/196 194/195 
f 336/353 337/352 384/423 383/420 
f 338/355 329/354 187/200 385/199 
f 333/348 338/355 385/199 195/196 
f 336/438 328/346 276/297 307/329 
f 386/395 387/396 348/364 349/365 
f 317/336 386/395 349/365 265/286 
f 360/373 374/387 192/425 388/203 
f 387/396 319/337 268/289 348/364 
f 389/205 390/206 376/458 375/388 
f 178/193 196/184 318/338 
f 390/450 191/190 313/333 376/389 
f 391/207 389/205 375/388 
f 193/191 192/425 374/387 314/335 
f 194/195 179/208 377/390 332/349 
f 392/209 384/422 337/437 378/391 
f 180/210 382/211 330/392 340/357 
f 179/208 393/212 379/393 377/390 
f 181/213 392/209 378/391 380/394 
f 393/212 181/213 380/394 379/393 
f 324/409 182/397 204/226 260/281 
f 394/214 183/215 320/339 254/276 261/282 
f 257/60 394/214 261/282 203/452 
f 383/421 185/216 328/346 336/438 
f 395/217 186/218 387/396 386/395 
f 189/192 395/217 386/395 317/336 
f 186/218 381/194 319/337 387/396 
f 183/215 391/207 375/388 320/339 
f 361/167 184/410 323/342 
f 188/183 396/219 341/147 327/345 322/341 
f 185/216 197/411 328/346 
f 388/203 359/165 360/373 
f 187/200 382/426 154/412 153/135 
f 329/354 279/300 280/299 330/439 
f 187/200 329/354 330/439 382/426 
f 155/146 180/496 340/499 341/147 
# 381 polygons - 12 triangles

