# 3ds Max Wavefront OBJ Exporter v0.99 - (c)2007 guruware
# File Created: 27.10.2025 13:45:09

mtllib statue horse 4.mtl

#
# object Box013
#

v  -30.000000 0.000000 60.000000
v  30.000000 0.000000 60.000000
v  -30.000000 0.000000 -60.000000
v  30.000000 0.000000 -60.000000
v  -30.000000 36.438713 60.000000
v  30.000000 36.438713 60.000000
v  -30.000000 36.438713 -60.000000
v  30.000000 36.438713 -60.000000
v  -19.360630 36.438713 49.360630
v  19.360630 36.438713 49.360630
v  19.360630 36.438713 -49.360630
v  -19.360630 36.438713 -49.360630
v  -19.360630 60.129417 49.360630
v  19.360630 60.129417 49.360630
v  19.360630 60.129417 -49.360630
v  -19.360630 60.129417 -49.360630
v  19.360630 39.938713 45.860630
v  19.360630 39.938713 -45.860630
v  19.360630 56.629417 -45.860630
v  19.360630 56.629417 45.860630
v  -19.360630 39.938713 -45.860630
v  -19.360630 39.938713 45.860630
v  -19.360630 56.629417 45.860630
v  -19.360630 56.629417 -45.860630
v  -15.860630 39.938713 49.360630
v  15.860630 39.938713 49.360630
v  15.860630 56.629417 49.360630
v  -15.860630 56.629417 49.360630
v  15.860630 39.938713 -49.360630
v  -15.860630 39.938713 -49.360630
v  -15.860630 56.629417 -49.360630
v  15.860630 56.629417 -49.360630
v  -14.037043 41.762299 49.360630
v  14.037043 41.762299 49.360630
v  14.037043 54.805832 49.360630
v  -14.037043 54.805832 49.360630
v  19.360630 41.762299 44.037041
v  19.360630 41.762299 -44.037041
v  19.360630 54.805832 -44.037041
v  19.360630 54.805832 44.037041
v  14.037043 41.762299 -49.360630
v  -14.037043 41.762299 -49.360630
v  -14.037043 54.805832 -49.360630
v  14.037043 54.805832 -49.360630
v  -19.360630 41.762299 -44.037041
v  -19.360630 41.762299 44.037041
v  -19.360630 54.805832 44.037041
v  -19.360630 54.805832 -44.037041
v  -14.037043 41.762299 45.949631
v  14.037043 41.762299 45.949631
v  14.037043 54.805832 45.949631
v  -14.037043 54.805832 45.949631
v  15.949629 41.762299 44.037041
v  15.949629 41.762299 -44.037041
v  15.949629 54.805832 -44.037041
v  15.949629 54.805832 44.037041
v  14.037043 41.762299 -45.949631
v  -14.037043 41.762299 -45.949631
v  -14.037043 54.805832 -45.949631
v  14.037043 54.805832 -45.949631
v  -15.949629 41.762299 -44.037041
v  -15.949629 41.762299 44.037041
v  -15.949629 54.805832 44.037041
v  -15.949629 54.805832 -44.037041
v  -19.360630 63.703468 49.360630
v  19.360630 63.703468 49.360630
v  19.360630 63.703468 -49.360630
v  -19.360630 63.703468 -49.360630
v  21.360630 60.129417 49.360630
v  21.360630 60.129417 -49.360630
v  21.360630 63.703468 -49.360630
v  21.360630 63.703468 49.360630
v  -21.360630 60.129417 -49.360630
v  -21.360630 60.129417 49.360630
v  -21.360630 63.703468 49.360630
v  -21.360630 63.703468 -49.360630
v  -19.360630 60.129417 51.360630
v  19.360630 60.129417 51.360630
v  21.360630 60.129417 51.360630
v  21.360630 63.703468 51.360630
v  19.360630 63.703468 51.360630
v  -19.360630 63.703468 51.360630
v  -21.360630 63.703468 51.360630
v  -21.360630 60.129417 51.360630
v  19.360630 60.129417 -51.360630
v  -19.360630 60.129417 -51.360630
v  -21.360630 60.129417 -51.360630
v  -21.360630 63.703468 -51.360630
v  -19.360630 63.703468 -51.360630
v  19.360630 63.703468 -51.360630
v  21.360630 63.703468 -51.360630
v  21.360630 60.129417 -51.360630
# 92 vertices

vt 0.956867 0.152421 0.000000
vt 0.694797 0.159896 0.000000
vt 0.691060 0.028861 0.000000
vt 0.953130 0.021386 0.000000
vt 0.365938 0.816685 0.000000
vt 0.364485 0.712252 0.000000
vt 0.630739 0.708548 0.000000
vt 0.632192 0.812980 0.000000
vt 0.299152 0.653851 0.000000
vt 0.299908 0.866809 0.000000
vt 0.725068 0.652340 0.000000
vt 0.014269 0.883633 0.000000
vt 0.210868 0.808793 0.000000
vt 0.120848 0.811060 0.000000
vt 0.687440 0.690236 0.000000
vt 0.102644 0.539056 0.000000
vt 0.270278 0.277507 0.000000
vt 0.345412 0.268071 0.000000
vt 0.380320 0.263687 0.000000
vt 0.791722 0.856159 0.000000
vt 0.865502 0.798694 0.000000
vt 0.846402 0.561902 0.000000
vt 0.881470 0.559074 0.000000
vt 0.900571 0.795866 0.000000
vt 0.959693 0.854493 0.000000
vt 0.883999 0.856640 0.000000
vt 0.883002 0.821472 0.000000
vt 0.167433 0.307272 0.000000
vt 0.937038 0.564215 0.000000
vt 0.961948 0.800467 0.000000
vt 0.926960 0.804156 0.000000
vt 0.902050 0.567904 0.000000
vt 0.223069 0.542831 0.000000
vt 0.218801 0.803412 0.000000
vt 0.600787 0.088510 0.000000
vt 0.271344 0.541676 0.000000
vt 0.259695 0.842241 0.000000
vt 0.253247 0.826625 0.000000
vt 0.112561 0.805927 0.000000
vt 0.093241 0.549204 0.000000
vt 0.074135 0.845315 0.000000
vt 0.079694 0.829785 0.000000
vt 0.034001 0.540420 0.000000
vt 0.044923 0.550447 0.000000
vt 0.207666 0.815459 0.000000
vt 0.124200 0.818060 0.000000
vt 0.239218 0.839053 0.000000
vt 0.094917 0.841035 0.000000
vt 0.104567 0.529931 0.000000
vt 0.209758 0.524784 0.000000
vt 0.049129 0.528833 0.000000
vt 0.591551 0.098151 0.000000
vt 0.344265 0.258942 0.000000
vt 0.269131 0.268378 0.000000
vt 0.379173 0.254558 0.000000
vt 0.105730 0.838666 0.000000
vt 0.057217 0.381736 0.000000
vt 0.294773 0.380199 0.000000
vt 0.022036 0.381964 0.000000
vt 0.329955 0.379971 0.000000
vt 0.277755 0.321902 0.000000
vt 0.353387 0.325616 0.000000
vt 0.242615 0.320176 0.000000
vt 0.166982 0.316462 0.000000
vt 0.304380 0.425977 0.000000
vt 0.066903 0.432330 0.000000
vt 0.339549 0.425036 0.000000
vt 0.050640 0.555671 0.000000
vt 0.358266 0.041688 0.000000
vt 0.356084 0.152174 0.000000
vt 0.359091 0.712327 0.000000
vt 0.360544 0.816760 0.000000
vt 0.344471 0.164228 0.000000
vt 0.072371 0.160115 0.000000
vt 0.630664 0.703154 0.000000
vt 0.364410 0.706858 0.000000
vt 0.060304 0.148380 0.000000
vt 0.062485 0.037895 0.000000
vt 0.637586 0.812905 0.000000
vt 0.636133 0.708473 0.000000
vt 0.028212 0.541198 0.000000
vt 0.068340 0.846053 0.000000
vt 0.366013 0.822079 0.000000
vt 0.632267 0.818374 0.000000
vt 0.636058 0.703079 0.000000
vt 0.065516 0.155522 0.000000
vt 0.351622 0.158979 0.000000
vt 0.345908 0.154014 0.000000
vt 0.360619 0.822154 0.000000
vt 0.353053 0.034546 0.000000
vt 0.066946 0.031090 0.000000
vt 0.637661 0.818299 0.000000
vt 0.499762 0.887898 0.000000
vt 0.661593 0.889319 0.000000
vt 0.176100 0.885055 0.000000
vt 0.725824 0.865297 0.000000
vt 0.337049 0.691480 0.000000
vt 0.337537 0.828913 0.000000
vt 0.213007 0.533080 0.000000
vt 0.687927 0.827669 0.000000
vt 0.347175 0.149526 0.000000
vt 0.348902 0.044529 0.000000
vt 0.074895 0.150915 0.000000
vt 0.341839 0.154837 0.000000
vt 0.071394 0.040544 0.000000
vt 0.069667 0.145539 0.000000
vt 0.343674 0.039154 0.000000
vt 0.076728 0.035232 0.000000
vt 0.070450 0.149653 0.000000
vt 0.359016 0.706933 0.000000
vt 0.348119 0.040416 0.000000
vt 0.072659 0.036055 0.000000
vt 0.791646 0.820977 0.000000
vt 0.867370 0.820815 0.000000
vt 0.867446 0.855997 0.000000
vt 0.235370 0.281891 0.000000
vt 0.067149 0.441527 0.000000
vt 0.304626 0.435174 0.000000
vt 0.339795 0.434233 0.000000
vt 0.577272 0.427880 0.000000
vt 0.294714 0.370998 0.000000
vt 0.057158 0.372536 0.000000
vt 0.021976 0.372764 0.000000
vt 0.329895 0.370771 0.000000
vt 0.353839 0.316426 0.000000
vt 0.278206 0.312712 0.000000
vt 0.243066 0.310986 0.000000
vt 0.958696 0.819325 0.000000
vt 0.660730 0.987601 0.000000
vt 0.984392 0.990444 0.000000
vt 0.013406 0.981915 0.000000
vt 0.175237 0.983337 0.000000
vt 0.498899 0.986180 0.000000
vt 0.985256 0.892162 0.000000
vt 0.074561 0.851156 0.000000
vt 0.259474 0.848080 0.000000
vt 0.265524 0.842629 0.000000
vt 0.287519 0.531361 0.000000
vt 0.600671 0.083117 0.000000
vt 0.496252 0.085364 0.000000
vt 0.074096 0.025841 0.000000
vt 0.346198 0.029953 0.000000
vt 0.287950 0.525537 0.000000
vt 0.265249 0.848408 0.000000
vt 0.068831 0.851798 0.000000
vt 0.027434 0.535409 0.000000
vt 0.388979 0.318152 0.000000
vt 0.106070 0.525028 0.000000
vt 0.207674 0.520252 0.000000
vt 0.056838 0.523322 0.000000
vt 0.388527 0.327341 0.000000
vt 0.586740 0.103175 0.000000
vt 0.108287 0.803254 0.000000
vt 0.088375 0.554516 0.000000
vt 0.082619 0.821701 0.000000
vt 0.031734 0.433271 0.000000
vt 0.577026 0.418683 0.000000
vt 0.031980 0.442468 0.000000
vt 0.160236 0.291327 0.000000
vt 0.205740 0.818547 0.000000
vt 0.126211 0.821637 0.000000
vt 0.159090 0.282198 0.000000
vt 0.228600 0.837397 0.000000
vt 0.234223 0.272762 0.000000
vt 0.228257 0.547950 0.000000
vt 0.222913 0.800602 0.000000
vt 0.265940 0.547270 0.000000
vt 0.567511 0.378433 0.000000
vt 0.249841 0.818502 0.000000
vt 0.567452 0.369233 0.000000
vt 0.281695 0.530931 0.000000
vt 0.496368 0.090757 0.000000
vt 0.506010 0.099992 0.000000
vt 0.266062 0.520968 0.000000
vt 0.282125 0.525106 0.000000
vt 0.033223 0.534632 0.000000
vt 0.511033 0.104804 0.000000
vt 0.258198 0.516234 0.000000
# 178 texture coords

o Box013
g Box013
usemtl wire_181223214
f 1/1 3/2 4/3 2/4 
f 65/5 66/6 67/7 68/8 
f 1/129 2/133 6/93 5/94 
f 2/133 4/132 8/95 6/93 
f 4/132 3/131 7/12 8/95 
f 3/130 1/129 5/94 7/134 
f 5/10 6/9 10/97 9/98 
f 6/9 8/11 11/15 10/97 
f 8/11 7/96 12/100 11/15 
f 7/96 5/10 9/98 12/100 
f 49/113 50/114 51/115 52/20 
f 53/21 54/22 55/23 56/24 
f 57/25 58/26 59/27 60/128 
f 61/29 62/30 63/31 64/32 
f 10/13 11/99 18/33 17/34 
f 11/99 15/171 19/36 18/33 
f 15/171 14/37 20/38 19/36 
f 14/37 10/13 17/34 20/38 
f 12/16 9/14 22/39 21/40 
f 9/14 13/41 23/42 22/39 
f 13/41 16/43 24/44 23/42 
f 16/43 12/16 21/40 24/44 
f 9/14 10/13 26/45 25/46 
f 10/13 14/37 27/47 26/45 
f 14/37 13/41 28/48 27/47 
f 13/41 9/14 25/46 28/48 
f 11/99 12/16 30/49 29/50 
f 12/16 16/43 31/51 30/49 
f 16/172 15/35 32/52 31/173 
f 15/171 11/99 29/50 32/174 
f 25/46 26/45 34/160 33/161 
f 26/45 27/47 35/163 34/160 
f 27/47 28/48 36/56 35/163 
f 28/48 25/46 33/161 36/56 
f 17/34 18/33 38/165 37/166 
f 18/33 19/36 39/167 38/165 
f 19/36 20/38 40/169 39/167 
f 20/38 17/34 37/166 40/169 
f 29/50 30/49 42/148 41/149 
f 30/49 31/51 43/150 42/148 
f 31/173 32/52 44/152 43/177 
f 32/174 29/50 41/149 44/178 
f 21/40 22/39 46/153 45/154 
f 22/39 23/42 47/155 46/153 
f 23/42 24/44 48/68 47/155 
f 24/44 21/40 45/154 48/68 
f 33/54 34/53 50/18 49/17 
f 34/53 35/55 51/19 50/18 
f 35/162 36/164 52/116 51/159 
f 36/164 33/54 49/17 52/116 
f 37/58 38/57 54/122 53/121 
f 38/57 39/59 55/123 54/122 
f 39/168 40/60 56/124 55/170 
f 40/60 37/58 53/121 56/124 
f 41/62 42/61 58/126 57/125 
f 42/61 43/63 59/127 58/126 
f 43/63 44/64 60/28 59/127 
f 44/151 41/62 57/125 60/147 
f 45/66 46/65 62/118 61/117 
f 46/65 47/67 63/119 62/118 
f 47/67 48/157 64/120 63/119 
f 48/156 45/66 61/117 64/158 
f 77/69 78/70 81/101 82/102 
f 69/73 70/74 71/103 72/104 
f 85/77 86/78 89/105 90/106 
f 73/141 74/142 75/107 76/108 
f 14/37 15/171 70/138 69/137 
f 85/77 90/106 91/109 92/86 
f 67/7 66/6 72/76 71/75 
f 81/101 78/70 79/87 80/88 
f 16/43 13/41 74/82 73/81 
f 77/69 82/102 83/111 84/90 
f 65/5 68/8 76/84 75/83 
f 89/105 86/78 87/91 88/112 
f 13/41 14/37 78/136 77/135 
f 14/37 69/137 79/144 78/136 
f 69/73 72/104 80/88 79/87 
f 72/76 66/6 81/71 80/110 
f 66/6 65/5 82/72 81/71 
f 65/5 75/83 83/89 82/72 
f 75/107 74/142 84/90 83/111 
f 74/82 13/41 77/135 84/145 
f 15/35 16/172 86/140 85/139 
f 16/43 73/81 87/146 86/176 
f 73/141 76/108 88/112 87/91 
f 76/84 68/8 89/79 88/92 
f 68/8 67/7 90/80 89/79 
f 67/7 71/75 91/85 90/80 
f 71/103 70/74 92/86 91/109 
f 70/138 15/171 85/175 92/143 
# 90 polygons

